<svg height="512pt" viewBox="0 0 512 512" width="512pt" xmlns="http://www.w3.org/2000/svg"><path d="m0 256c0-141.386719 114.613281-256 256-256s256 114.613281 256 256-114.613281 256-256 256-256-114.613281-256-256zm256 153.085938c84.546875 0 153.085938-68.539063 153.085938-153.085938s-68.539063-153.085938-153.085938-153.085938-153.085938 68.539063-153.085938 153.085938 68.539063 153.085938 153.085938 153.085938zm0 0" fill="#83d9ff"/><path d="m256 512v-102.914062c19.542969 0 38.21875-3.65625 55.402344-10.332032l35.210937 96.742188c-28.175781 10.664062-58.707031 16.503906-90.613281 16.503906zm0 0" fill="#3fefef"/><path d="m311.402344 398.753906c17.6875-6.871094 33.789062-16.9375 47.59375-29.496094l66.191406 78.871094c-22.921875 20.191406-49.480469 36.355469-78.574219 47.367188zm0 0" fill="#1dd1d9"/><path d="m358.996094 369.257812c13.660156-12.433593 25.066406-27.300781 33.53125-43.925781l89.203125 51.507813c-14.492188 27.03125-33.714844 51.167968-56.546875 71.289062zm0 0" fill="#17b5ba"/><path d="m404.890625 220.261719 101.472656-17.894531c3.699219 17.296874 5.636719 35.234374 5.636719 53.632812 0 11.949219-.824219 23.703125-2.410156 35.222656l-101.472656-17.882812c.636718-5.6875.96875-11.476563.96875-17.339844 0-12.3125-1.453126-24.269531-4.195313-35.738281zm0 0" fill="#9be058"/><path d="m384.300781 172.441406 89.210938-51.507812c15.339843 24.664062 26.609375 52.117187 32.851562 81.433594l-101.472656 17.894531c-4.128906-17.265625-11.175781-33.386719-20.589844-47.820313zm0 0" fill="#c0ff66"/><path d="m349.652344 134.902344 66.191406-78.882813c22.703125 18.171875 42.246094 40.128907 57.667969 64.914063l-89.210938 51.507812c-9.386719-14.371094-21.121093-27.0625-34.648437-37.539062zm0 0" fill="#ffdf46"/><path d="m171.484375 14.289062c26.464844-9.261718 54.898437-14.289062 84.515625-14.289062v102.914062c-17.257812 0-33.839844 2.855469-49.316406 8.117188zm0 0" fill="#fc3e81"/><path d="m96.15625 56.019531c22.347656-17.882812 47.757812-32.097656 75.316406-41.730469h.011719l35.199219 96.742188c-16.164063 5.492188-31.109375 13.621094-44.335938 23.871094zm0 0" fill="#f01054"/><path d="m38.488281 120.933594c15.421875-24.785156 34.964844-46.738282 57.667969-64.914063l66.191406 78.882813c-13.527344 10.476562-25.261718 23.167968-34.644531 37.539062zm0 0" fill="#7884ea"/><path d="m2.410156 291.222656 101.472656-17.882812c2.09375 18.53125 7.488282 36.066406 15.589844 51.992187l-89.207031 51.507813c-14.03125-26.15625-23.652344-55.023438-27.855469-85.617188zm0 0" fill="#1685fb"/><path d="m30.265625 376.839844 89.203125-51.507813c8.46875 16.625 19.875 31.492188 33.535156 43.925781l-66.191406 78.871094c-22.828125-20.121094-42.050781-44.257812-56.546875-71.289062zm0 0" fill="#43a3f9"/><path d="m86.8125 448.128906 66.191406-78.871094c13.800782 12.558594 29.902344 22.625 47.59375 29.496094l-35.214844 96.742188c-29.089843-11.011719-55.648437-27.175782-78.570312-47.367188zm0 0" fill="#64bdff"/><path d="m5.636719 202.367188c6.242187-29.316407 17.511719-56.769532 32.851562-81.433594l89.210938 51.507812c-9.414063 14.433594-16.460938 30.554688-20.589844 47.820313zm0 0" fill="#4a5be5"/><path d="m392.53125 325.332031c8.097656-15.929687 13.492188-33.460937 15.585938-51.992187l101.472656 17.882812c-4.203125 30.59375-13.824219 59.460938-27.855469 85.617188zm0 0" fill="#1cc939"/><path d="m0 256c0-18.398438 1.9375-36.335938 5.636719-53.632812l101.472656 17.894531c-2.742187 11.46875-4.195313 23.425781-4.195313 35.738281 0 5.863281.332032 11.652344.96875 17.339844l-101.472656 17.882812c-1.585937-11.519531-2.410156-23.273437-2.410156-35.222656zm0 0" fill="#364ec6"/><path d="m305.316406 111.03125 35.210938-96.742188c27.558594 9.632813 52.972656 23.847657 75.316406 41.734376l-66.1875 78.878906c-13.230469-10.25-28.179688-18.378906-44.339844-23.871094zm0 0" fill="#f9b200"/><path d="m256 102.914062v-102.914062c29.617188 0 58.0625 5.027344 84.527344 14.289062l-35.214844 96.742188c-15.472656-5.261719-32.054688-8.117188-49.3125-8.117188zm0 0" fill="#fd6096"/></svg>