<?xml version="1.0" encoding="UTF-8" standalone="no"?>
<svg
   xmlns:dc="http://purl.org/dc/elements/1.1/"
   xmlns:cc="http://creativecommons.org/ns#"
   xmlns:rdf="http://www.w3.org/1999/02/22-rdf-syntax-ns#"
   xmlns:svg="http://www.w3.org/2000/svg"
   xmlns="http://www.w3.org/2000/svg"
   xmlns:sodipodi="http://sodipodi.sourceforge.net/DTD/sodipodi-0.dtd"
   xmlns:inkscape="http://www.inkscape.org/namespaces/inkscape"
   version="1.1"
   id="Capa_1"
   x="0px"
   y="0px"
   viewBox="0 0 59.319625 59.319625"
   xml:space="preserve"
   width="64"
   height="64"
   sodipodi:docname="icon.svg"
   inkscape:version="0.92.3 (2405546, 2018-03-11)"><metadata
   id="metadata55"><rdf:RDF><cc:Work
       rdf:about=""><dc:format>image/svg+xml</dc:format><dc:type
         rdf:resource="http://purl.org/dc/dcmitype/StillImage" /><dc:title></dc:title></cc:Work></rdf:RDF></metadata><defs
   id="defs53" /><sodipodi:namedview
   pagecolor="#ffffff"
   bordercolor="#666666"
   borderopacity="1"
   objecttolerance="10"
   gridtolerance="10"
   guidetolerance="10"
   inkscape:pageopacity="0"
   inkscape:pageshadow="2"
   inkscape:window-width="1920"
   inkscape:window-height="1057"
   id="namedview51"
   showgrid="false"
   fit-margin-top="0"
   fit-margin-left="0"
   fit-margin-right="0"
   fit-margin-bottom="0"
   inkscape:zoom="3.6875"
   inkscape:cx="9.4349597"
   inkscape:cy="46.201689"
   inkscape:window-x="-8"
   inkscape:window-y="-8"
   inkscape:window-maximized="1"
   inkscape:current-layer="Capa_1" /><g
   id="g48"
   transform="matrix(0.125,0,0,0.12607731,0,-0.25568478)"><g
     id="g46">
	<g
   id="g14">
		<g
   id="g12">
			<path
   d="M 0,2.028 V 472.53 H 474.557 V 2.028 Z m 435.471,431.437 c -33.996,0 -362.303,0 -396.363,0 0,-33.996 0,-358.377 0,-392.329 33.996,0 362.346,0 396.363,0 0,33.952 0,358.333 0,392.329 z"
   data-original="#000000"
   class="active-path"
   data-old_color="#000000"
   id="path2"
   inkscape:connector-curvature="0"
   style="fill:#008080" />
			<path
   d="m 124.916,273.625 c 1.294,4.53 2.006,14.409 2.006,29.574 0,13.007 0.669,22.563 2.071,28.624 1.402,6.018 4.142,11.174 8.24,15.272 4.077,4.098 9.081,7.075 15.013,8.866 5.954,1.769 14.496,2.653 25.605,2.653 h 6.579 v -29.66 c -8.866,0 -14.625,-0.561 -17.3,-1.682 -2.653,-1.143 -4.638,-2.718 -5.954,-4.897 -1.294,-2.157 -1.941,-5.91 -1.941,-11.325 0,-3.84 -0.345,-12.576 -0.992,-26.295 -0.496,-8.973 -1.575,-16.135 -3.236,-21.484 -1.639,-5.393 -4.012,-9.944 -7.118,-13.697 -3.085,-3.775 -7.054,-7.032 -11.907,-9.815 5.501,-3.581 9.577,-6.967 12.274,-10.311 2.675,-3.257 4.875,-7.442 6.601,-12.511 1.704,-5.069 2.783,-11.691 3.214,-19.845 0.733,-14.452 1.143,-24.289 1.143,-29.487 0,-5.091 0.626,-8.715 1.855,-10.807 1.251,-2.071 3.149,-3.645 5.738,-4.702 2.588,-1.014 8.477,-1.532 17.623,-1.532 v -29.509 h -6.579 c -10.807,0 -18.723,0.755 -23.728,2.243 -7.42,2.222 -13.072,5.242 -16.976,9.06 -3.883,3.84 -6.558,8.909 -8.046,15.229 -1.467,6.277 -2.179,17.429 -2.179,33.348 0,9.858 -0.367,16.674 -1.035,20.643 -0.82,5.263 -2.351,9.642 -4.551,13.158 -2.243,3.516 -4.832,5.997 -7.916,7.485 -3.02,1.445 -7.528,2.373 -13.568,2.739 v 29.681 c 7.593,0.388 13.201,2.028 16.89,4.897 3.645,2.806 6.384,7.487 8.174,14.087 z"
   data-original="#000000"
   class="active-path"
   data-old_color="#000000"
   id="path4"
   inkscape:connector-curvature="0"
   style="fill:#008080" />
			<path
   d="m 212.084,331.392 6.73,14.366 c 7.42,-2.653 13.568,-6.32 18.4,-10.915 4.832,-4.595 8.089,-9.815 9.815,-15.617 1.747,-5.846 2.61,-13.805 2.61,-23.814 v -24.785 h -34.751 v 34.729 h 16.761 c -0.129,6.838 -1.726,12.295 -4.659,16.48 -2.956,4.034 -7.939,7.269 -14.906,9.556 z"
   data-original="#000000"
   class="active-path"
   data-old_color="#000000"
   id="path6"
   inkscape:connector-curvature="0"
   style="fill:#008080" />
			<rect
   x="214.888"
   y="174.01199"
   width="34.750999"
   height="34.771999"
   data-original="#000000"
   class="active-path"
   data-old_color="#000000"
   id="rect8"
   style="fill:#008080" />
			<path
   d="m 311.18,356.349 c 7.464,-2.243 13.201,-5.22 17.106,-9.081 3.883,-3.818 6.536,-8.93 7.938,-15.272 1.402,-6.363 2.179,-17.515 2.179,-33.499 0,-9.75 0.367,-16.609 1.014,-20.557 0.884,-5.263 2.438,-9.642 4.659,-13.137 2.179,-3.494 4.767,-6.018 7.809,-7.485 3.042,-1.467 7.55,-2.373 13.568,-2.696 h -0.043 v -29.66 c -7.615,-0.453 -13.18,-2.071 -16.933,-4.918 -3.667,-2.826 -6.407,-7.571 -8.262,-14.107 -1.251,-4.616 -1.855,-14.452 -1.855,-29.509 0,-13.029 -0.712,-22.541 -2.157,-28.56 -1.424,-6.105 -4.163,-11.195 -8.197,-15.358 -4.055,-4.142 -9.038,-7.054 -14.97,-8.801 -5.975,-1.726 -14.517,-2.61 -25.626,-2.61 h -6.557 v 29.466 c 9.34,0 15.337,0.561 17.99,1.683 2.696,1.1 4.551,2.675 5.565,4.724 1.057,2.049 1.553,6.169 1.639,12.36 0.453,19.608 1.186,32.291 2.071,38.072 1.381,8.369 4.055,15.294 7.873,20.686 2.826,3.84 7.248,7.658 13.352,11.627 -4.702,2.696 -8.52,5.846 -11.54,9.448 -3.041,3.559 -5.436,7.96 -7.205,13.072 -1.812,5.177 -2.955,12.08 -3.322,20.6 -0.669,14.172 -1.1,23.814 -1.1,28.819 -0.086,5.026 -0.669,8.585 -1.984,10.699 -1.316,2.136 -3.279,3.71 -5.975,4.853 -2.718,1.122 -8.52,1.639 -17.364,1.639 v 29.66 h 6.622 c 10.741,0.064 18.679,-0.712 23.705,-2.158 z"
   data-original="#000000"
   class="active-path"
   data-old_color="#000000"
   id="path10"
   inkscape:connector-curvature="0"
   style="fill:#008080" />
		</g>
	</g>
	<g
   id="g16">
	</g>
	<g
   id="g18">
	</g>
	<g
   id="g20">
	</g>
	<g
   id="g22">
	</g>
	<g
   id="g24">
	</g>
	<g
   id="g26">
	</g>
	<g
   id="g28">
	</g>
	<g
   id="g30">
	</g>
	<g
   id="g32">
	</g>
	<g
   id="g34">
	</g>
	<g
   id="g36">
	</g>
	<g
   id="g38">
	</g>
	<g
   id="g40">
	</g>
	<g
   id="g42">
	</g>
	<g
   id="g44">
	</g>
</g></g> </svg>