<?xml version="1.0" encoding="iso-8859-1"?>
<!-- Generator: Adobe Illustrator 19.0.0, SVG Export Plug-In . SVG Version: 6.00 Build 0)  -->
<svg xmlns="http://www.w3.org/2000/svg" xmlns:xlink="http://www.w3.org/1999/xlink" version="1.1" id="Layer_1" x="0px" y="0px" viewBox="0 0 512 512" style="enable-background:new 0 0 512 512;" xml:space="preserve" width="512px" height="512px">
<g>
	<g>
		<path d="M460.8,267.378h-73.956V136.533h-34.133v31.992c-36.063,8.292-138.658,30.586-199.111,30.586H51.2    c-28.232,0-51.2,22.967-51.2,51.2c0,28.233,22.968,51.2,51.2,51.2h187.733v34.133h-28.444v-5.689h-45.511v45.511h45.511v-5.689    H460.8c28.232,0,51.2-22.967,51.2-51.2C512,290.345,489.032,267.378,460.8,267.378z M68.267,267.378H51.2    c-9.411,0-17.067-7.656-17.067-17.067c0-9.411,7.656-17.067,17.067-17.067h17.067V267.378z M125.156,267.378H102.4v-34.133h22.756    V267.378z M352.711,203.558v25.24c-14.841-3.358-36.26-8.002-60.425-12.62C316.451,211.559,337.87,206.915,352.711,203.558z     M159.289,267.378v-34.065c60.976,1.294,158.458,22.482,193.422,30.519v3.547H159.289z M295.822,335.644h-22.756v-34.133h22.756    V335.644z M460.8,335.644H329.956v-34.133H460.8c9.411,0,17.067,7.655,17.067,17.067    C477.867,327.99,470.211,335.644,460.8,335.644z" fill="#FFFFFF"/>
	</g>
</g>
<g>
</g>
<g>
</g>
<g>
</g>
<g>
</g>
<g>
</g>
<g>
</g>
<g>
</g>
<g>
</g>
<g>
</g>
<g>
</g>
<g>
</g>
<g>
</g>
<g>
</g>
<g>
</g>
<g>
</g>
</svg>
