<?xml version="1.0" encoding="UTF-8" standalone="no"?>
<!-- Created with Inkscape (http://www.inkscape.org/) -->

<svg
   xmlns:dc="http://purl.org/dc/elements/1.1/"
   xmlns:cc="http://creativecommons.org/ns#"
   xmlns:rdf="http://www.w3.org/1999/02/22-rdf-syntax-ns#"
   xmlns:svg="http://www.w3.org/2000/svg"
   xmlns="http://www.w3.org/2000/svg"
   xmlns:sodipodi="http://sodipodi.sourceforge.net/DTD/sodipodi-0.dtd"
   xmlns:inkscape="http://www.inkscape.org/namespaces/inkscape"
   width="64"
   height="64"
   viewBox="0 0 16.933334 16.933333"
   version="1.1"
   id="svg8"
   inkscape:version="0.92.3 (2405546, 2018-03-11)"
   sodipodi:docname="icon.svg">
  <defs
     id="defs2" />
  <sodipodi:namedview
     id="base"
     pagecolor="#ffffff"
     bordercolor="#666666"
     borderopacity="1.0"
     inkscape:pageopacity="0.0"
     inkscape:pageshadow="2"
     inkscape:zoom="7.9195962"
     inkscape:cx="-7.8336236"
     inkscape:cy="21.071247"
     inkscape:document-units="px"
     inkscape:current-layer="layer1"
     showgrid="false"
     units="px"
     inkscape:snap-global="false"
     fit-margin-top="0"
     fit-margin-left="0"
     fit-margin-right="0"
     fit-margin-bottom="0"
     inkscape:window-width="1920"
     inkscape:window-height="1057"
     inkscape:window-x="-8"
     inkscape:window-y="-8"
     inkscape:window-maximized="1" />
  <metadata
     id="metadata5">
    <rdf:RDF>
      <cc:Work
         rdf:about="">
        <dc:format>image/svg+xml</dc:format>
        <dc:type
           rdf:resource="http://purl.org/dc/dcmitype/StillImage" />
        <dc:title></dc:title>
      </cc:Work>
    </rdf:RDF>
  </metadata>
  <g
     inkscape:label="Livello 1"
     inkscape:groupmode="layer"
     id="layer1"
     transform="translate(-4.1247837,-263.22299)">
    <g
       id="logo"
       transform="matrix(0.65217493,0,0,0.65217493,-853.31154,-211.72752)" />
    <g
       id="g4688"
       transform="matrix(8.5528777,0,0,8.5528777,-520.15057,46.170269)" />
    <g
       id="g4690"
       transform="matrix(8.5528777,0,0,8.5528777,-520.15057,46.170269)" />
    <g
       id="g4692"
       transform="matrix(8.5528777,0,0,8.5528777,-520.15057,46.170269)" />
    <g
       id="g4694"
       transform="matrix(8.5528777,0,0,8.5528777,-520.15057,46.170269)" />
    <g
       id="g4696"
       transform="matrix(8.5528777,0,0,8.5528777,-520.15057,46.170269)" />
    <g
       id="g4698"
       transform="matrix(8.5528777,0,0,8.5528777,-520.15057,46.170269)" />
    <g
       id="g4700"
       transform="matrix(8.5528777,0,0,8.5528777,-520.15057,46.170269)" />
    <g
       id="g4702"
       transform="matrix(8.5528777,0,0,8.5528777,-520.15057,46.170269)" />
    <g
       id="g4704"
       transform="matrix(8.5528777,0,0,8.5528777,-520.15057,46.170269)" />
    <g
       id="g4706"
       transform="matrix(8.5528777,0,0,8.5528777,-520.15057,46.170269)" />
    <g
       id="g4708"
       transform="matrix(8.5528777,0,0,8.5528777,-520.15057,46.170269)" />
    <g
       id="g4710"
       transform="matrix(8.5528777,0,0,8.5528777,-520.15057,46.170269)" />
    <g
       id="g4712"
       transform="matrix(8.5528777,0,0,8.5528777,-520.15057,46.170269)" />
    <g
       id="g4714"
       transform="matrix(8.5528777,0,0,8.5528777,-520.15057,46.170269)" />
    <g
       id="g4716"
       transform="matrix(8.5528777,0,0,8.5528777,-520.15057,46.170269)" />
    <path
       style="fill:#0f768c;fill-opacity:1;stroke-width:0.03789577"
       d="m 5.8867619,263.97015 1.2284672,14.28808 5.5127299,1.58692 5.527937,-1.58916 1.229792,-14.28584 z m 2.5119274,2.92063 h 4.2316887 0.0058 4.227449 l -0.30508,3.54688 -0.04124,0.47057 -0.397111,4.61343 -0.02541,0.29605 -3.458604,0.99396 v 3.1e-4 l -0.0078,0.002 -3.4616518,-0.99653 -0.2367687,-2.75148 h 0.7818633 0.9145422 l 0.120322,1.3976 1.882091,0.52698 0.0074,-0.002 v -2.1e-4 l 1.878976,-0.52587 0.196154,-2.27271 H 12.636208 8.8545029 l -0.1514631,-1.7523 h 3.9331682 2.221656 l 0.153782,-1.79449 H 12.636208 8.5523057 Z"
       id="path887"
       inkscape:connector-curvature="0" />
  </g>
</svg>
