<?xml version="1.0" encoding="UTF-8" standalone="no"?>
<!-- Generator: Adobe Illustrator 19.0.0, SVG Export Plug-In . SVG Version: 6.00 Build 0)  -->

<svg
   xmlns:dc="http://purl.org/dc/elements/1.1/"
   xmlns:cc="http://creativecommons.org/ns#"
   xmlns:rdf="http://www.w3.org/1999/02/22-rdf-syntax-ns#"
   xmlns:svg="http://www.w3.org/2000/svg"
   xmlns="http://www.w3.org/2000/svg"
   xmlns:sodipodi="http://sodipodi.sourceforge.net/DTD/sodipodi-0.dtd"
   xmlns:inkscape="http://www.inkscape.org/namespaces/inkscape"
   version="1.1"
   id="Layer_1"
   x="0px"
   y="0px"
   viewBox="0 0 63.999999 63.999999"
   xml:space="preserve"
   sodipodi:docname="icon.svg"
   width="64"
   height="64"
   inkscape:version="0.92.3 (2405546, 2018-03-11)"><metadata
   id="metadata59"><rdf:RDF><cc:Work
       rdf:about=""><dc:format>image/svg+xml</dc:format><dc:type
         rdf:resource="http://purl.org/dc/dcmitype/StillImage" /><dc:title></dc:title></cc:Work></rdf:RDF></metadata><defs
   id="defs57" /><sodipodi:namedview
   pagecolor="#ffffff"
   bordercolor="#666666"
   borderopacity="1"
   objecttolerance="10"
   gridtolerance="10"
   guidetolerance="10"
   inkscape:pageopacity="0"
   inkscape:pageshadow="2"
   inkscape:window-width="1920"
   inkscape:window-height="1057"
   id="namedview55"
   showgrid="false"
   inkscape:zoom="7.7124182"
   inkscape:cx="29.988223"
   inkscape:cy="35.601379"
   inkscape:window-x="-8"
   inkscape:window-y="-8"
   inkscape:window-maximized="1"
   inkscape:current-layer="Layer_1" />










<g
   id="g4581"
   transform="matrix(0.11932235,0,0,0.11932235,3.0588793,54.330845)"><path
     inkscape:connector-curvature="0"
     id="path2"
     d="m 244.8,-218.40001 c 25.6,-20.8 58.4,-32.8 94.4,-32.8 19.2,0 37.6,4 55.2,10.4 0.8,-6.4 1.6,-13.6 1.6,-20 0,-83.2 -67.2,-150.4 -150.4,-150.4 -83.2,0 -150.4,67.2 -150.4,150.4 0,7.2 0.8,13.6 1.6,20 16.8,-6.4 35.2,-10.4 55.2,-10.4 34.4,0 67.2,12.8 92.8,32.8 z"
     style="fill:#f4ad31" /><path
     inkscape:connector-curvature="0"
     id="path4"
     d="m 150.4,-251.20001 c 36,0 68,12.8 94.4,32.8 25.6,-20.8 58.4,-32.8 94.4,-32.8 19.2,0 37.6,4 55.2,10.4 0.8,-6.4 1.6,-13.6 1.6,-20 0,-83.2 -67.2,-150.4 -150.4,-150.4"
     style="fill:#e2821a" /><path
     inkscape:connector-curvature="0"
     id="path6"
     d="m 188,-100.80001 c 0,-7.2 0.8,-13.6 1.6,-20 -49.6,-19.2 -86.4,-64.8 -94.4,-120 -55.2,22.4 -95.2,76 -95.2,140 0,83.200004 67.2,150.400004 150.4,150.400004 36,0 68,-12.8 94.4,-32.8 -34.4,-28 -56.8,-70.4 -56.8,-117.600004 z"
     style="fill:#d32a0f" /><path
     inkscape:connector-curvature="0"
     id="path8"
     d="m 150.4,49.599994 c 36,0 68,-12.8 94.4,-32.8 -34.4,-27.2 -56.8,-69.6 -56.8,-117.600004 0,-7.2 0.8,-13.6 1.6,-20"
     style="fill:#b71100" /><path
     inkscape:connector-curvature="0"
     id="path10"
     d="m 393.6,-240.80001 c -7.2,55.2 -44,100 -94.4,120 0.8,6.4 1.6,13.6 1.6,20 0,47.200004 -22.4,89.600004 -56.8,117.600004 25.6,20.8 58.4,32.8 94.4,32.8 83.2,0 150.4,-67.2 150.4,-150.400004 0.8,-64 -39.2,-117.6 -95.2,-140 z"
     style="fill:#0878a0" /><path
     inkscape:connector-curvature="0"
     id="path12"
     d="m 244.8,16.799994 c 25.6,20.8 58.4,32.8 94.4,32.8 83.2,0 150.4,-67.2 150.4,-150.400004"
     style="fill:#0c6c8e" /><path
     inkscape:connector-curvature="0"
     id="path14"
     d="m 244.8,-218.40001 c -29.6,23.2 -49.6,57.6 -55.2,96.8 16.8,6.4 35.2,10.4 55.2,10.4 19.2,0 37.6,-4 55.2,-10.4 -5.6,-38.4 -25.6,-72.8 -55.2,-96.8 z"
     style="fill:#3d3736" /><path
     inkscape:connector-curvature="0"
     id="path16"
     d="m 244.8,-110.40001 c 19.2,0 37.6,-4 55.2,-10.4 -5.6,-39.2 -25.6,-73.6 -55.2,-96.8" /><path
     inkscape:connector-curvature="0"
     id="path18"
     d="m 300,-120.80001 c 49.6,-19.2 86.4,-64.8 94.4,-120 -16.8,-6.4 -35.2,-10.4 -55.2,-10.4 -35.2,0 -68,12.8 -94.4,32.8 29.6,24 49.6,58.4 55.2,97.6 z"
     style="fill:#0caa7d" /><path
     inkscape:connector-curvature="0"
     id="path20"
     d="m 244.8,-218.40001 c -25.6,-20.8 -58.4,-32.8 -94.4,-32.8 -19.2,0 -37.6,4 -55.2,10.4 7.2,55.2 44,100 94.4,120 5.6,-39.2 25.6,-73.6 55.2,-97.6 z"
     style="fill:#720d20" /><path
     inkscape:connector-curvature="0"
     id="path22"
     d="m 301.6,-100.80001 c 0,-7.2 -0.8,-13.6 -1.6,-20 -16.8,6.4 -35.2,10.4 -55.2,10.4 -19.2,0 -37.6,-4 -55.2,-10.4 -0.8,6.4 -1.6,13.6 -1.6,20 0,47.200004 22.4,89.600004 56.8,117.600004 34.4,-28 56.8,-70.4 56.8,-117.600004 z"
     style="fill:#783089" /></g>
<g
   id="g24"
   transform="translate(0,-425.60001)">
</g>
<g
   id="g26"
   transform="translate(0,-425.60001)">
</g>
<g
   id="g28"
   transform="translate(0,-425.60001)">
</g>
<g
   id="g30"
   transform="translate(0,-425.60001)">
</g>
<g
   id="g32"
   transform="translate(0,-425.60001)">
</g>
<g
   id="g34"
   transform="translate(0,-425.60001)">
</g>
<g
   id="g36"
   transform="translate(0,-425.60001)">
</g>
<g
   id="g38"
   transform="translate(0,-425.60001)">
</g>
<g
   id="g40"
   transform="translate(0,-425.60001)">
</g>
<g
   id="g42"
   transform="translate(0,-425.60001)">
</g>
<g
   id="g44"
   transform="translate(0,-425.60001)">
</g>
<g
   id="g46"
   transform="translate(0,-425.60001)">
</g>
<g
   id="g48"
   transform="translate(0,-425.60001)">
</g>
<g
   id="g50"
   transform="translate(0,-425.60001)">
</g>
<g
   id="g52"
   transform="translate(0,-425.60001)">
</g>
</svg>