<?xml version="1.0" encoding="UTF-8" standalone="no"?>
<!-- Created with Inkscape (http://www.inkscape.org/) -->

<svg
   xmlns:dc="http://purl.org/dc/elements/1.1/"
   xmlns:cc="http://creativecommons.org/ns#"
   xmlns:rdf="http://www.w3.org/1999/02/22-rdf-syntax-ns#"
   xmlns:svg="http://www.w3.org/2000/svg"
   xmlns="http://www.w3.org/2000/svg"
   xmlns:sodipodi="http://sodipodi.sourceforge.net/DTD/sodipodi-0.dtd"
   xmlns:inkscape="http://www.inkscape.org/namespaces/inkscape"
   width="63.999996"
   height="63.999996"
   viewBox="0 0 16.933332 16.933333"
   version="1.1"
   id="svg8"
   inkscape:version="0.92.3 (2405546, 2018-03-11)"
   sodipodi:docname="icon.svg">
  <defs
     id="defs2" />
  <sodipodi:namedview
     id="base"
     pagecolor="#ffffff"
     bordercolor="#666666"
     borderopacity="1.0"
     inkscape:pageopacity="0.0"
     inkscape:pageshadow="2"
     inkscape:zoom="3.959798"
     inkscape:cx="-43.717474"
     inkscape:cy="60.217853"
     inkscape:document-units="px"
     inkscape:current-layer="layer1"
     showgrid="false"
     units="px"
     inkscape:snap-global="false"
     fit-margin-top="0"
     fit-margin-left="0"
     fit-margin-right="0"
     fit-margin-bottom="0"
     inkscape:window-width="1920"
     inkscape:window-height="1057"
     inkscape:window-x="-8"
     inkscape:window-y="-8"
     inkscape:window-maximized="1" />
  <metadata
     id="metadata5">
    <rdf:RDF>
      <cc:Work
         rdf:about="">
        <dc:format>image/svg+xml</dc:format>
        <dc:type
           rdf:resource="http://purl.org/dc/dcmitype/StillImage" />
        <dc:title></dc:title>
      </cc:Work>
    </rdf:RDF>
  </metadata>
  <g
     inkscape:label="Livello 1"
     inkscape:groupmode="layer"
     id="layer1"
     transform="translate(28.078789,-268.21228)">
    <g
       id="logo"
       transform="matrix(0.65217493,0,0,0.65217493,-853.31154,-211.72752)" />
    <g
       id="g4688"
       transform="matrix(8.5528777,0,0,8.5528777,-520.15057,46.170269)" />
    <g
       id="g4690"
       transform="matrix(8.5528777,0,0,8.5528777,-520.15057,46.170269)" />
    <g
       id="g4692"
       transform="matrix(8.5528777,0,0,8.5528777,-520.15057,46.170269)" />
    <g
       id="g4694"
       transform="matrix(8.5528777,0,0,8.5528777,-520.15057,46.170269)" />
    <g
       id="g4696"
       transform="matrix(8.5528777,0,0,8.5528777,-520.15057,46.170269)" />
    <g
       id="g4698"
       transform="matrix(8.5528777,0,0,8.5528777,-520.15057,46.170269)" />
    <g
       id="g4700"
       transform="matrix(8.5528777,0,0,8.5528777,-520.15057,46.170269)" />
    <g
       id="g4702"
       transform="matrix(8.5528777,0,0,8.5528777,-520.15057,46.170269)" />
    <g
       id="g4704"
       transform="matrix(8.5528777,0,0,8.5528777,-520.15057,46.170269)" />
    <g
       id="g4706"
       transform="matrix(8.5528777,0,0,8.5528777,-520.15057,46.170269)" />
    <g
       id="g4708"
       transform="matrix(8.5528777,0,0,8.5528777,-520.15057,46.170269)" />
    <g
       id="g4710"
       transform="matrix(8.5528777,0,0,8.5528777,-520.15057,46.170269)" />
    <g
       id="g4712"
       transform="matrix(8.5528777,0,0,8.5528777,-520.15057,46.170269)" />
    <g
       id="g4714"
       transform="matrix(8.5528777,0,0,8.5528777,-520.15057,46.170269)" />
    <g
       id="g4716"
       transform="matrix(8.5528777,0,0,8.5528777,-520.15057,46.170269)" />
    <g
       id="g3963"
       transform="matrix(0.05333333,0,0,0.05333333,-7.6320482,269.45404)">
      <g
         style="fill:#0f768c;fill-opacity:1"
         transform="matrix(0.6201172,0,0,0.6201172,-383.37641,-23.282958)"
         id="g3838">
        <path
           id="path3832"
           d="m 60.761,139.883 c -7.81,0 -14.144,-6.334 -14.144,-14.144 V 60.761 c 0,-7.81 6.334,-14.144 14.144,-14.144 h 64.979 c 7.81,0 14.144,6.334 14.144,14.144 0,7.81 -6.334,14.144 -14.144,14.144 H 74.905 v 50.835 c 0,7.811 -6.334,14.143 -14.144,14.143 z"
           style="fill:#0f768c;fill-opacity:1"
           inkscape:connector-curvature="0" />
        <path
           id="path3834"
           d="M 451.239,465.383 H 386.26 c -7.81,0 -14.144,-6.334 -14.144,-14.144 0,-7.81 6.334,-14.144 14.144,-14.144 h 50.835 V 386.26 c 0,-7.81 6.334,-14.144 14.144,-14.144 7.81,0 14.144,6.334 14.144,14.144 v 64.979 c 0,7.811 -6.333,14.144 -14.144,14.144 z"
           style="fill:#0f768c;fill-opacity:1"
           inkscape:connector-curvature="0" />
        <path
           id="path3836"
           d="M 497.856,512 H 14.144 C 6.334,512 0,505.667 0,497.856 V 14.144 C 0,6.334 6.334,0 14.144,0 H 497.857 C 505.667,0 512,6.334 512,14.144 V 497.857 C 512,505.667 505.667,512 497.856,512 Z M 28.287,483.713 H 483.712 V 28.287 H 28.287 Z"
           style="fill:#0f768c;fill-opacity:1"
           inkscape:connector-curvature="0" />
      </g>
      <path
         id="path3840"
         d="m -152.99357,100.38391 4.30796,-48.239532 c 0.142,-1.577579 -1.03994,-2.868663 -2.62434,-2.868663 H -297.9441 c -1.58378,0 -2.76449,1.291084 -2.62434,2.868663 l 13.3567,149.819692 c 0.14015,1.57758 1.50441,3.21593 3.03114,3.64009 l 56.67995,15.73734 c 1.52673,0.42354 4.02518,0.42354 5.55191,6.2e-4 l 56.85172,-15.76338 c 1.52673,-0.42354 2.89285,-2.06127 3.033,-3.63885 l 4.4698,-50.0416"
         style="fill:#cee8fa;stroke-width:0.62011719"
         inkscape:connector-curvature="0" />
      <g
         style="fill:#0f768c;fill-opacity:1"
         transform="matrix(0.6201172,0,0,0.6201172,-383.37641,-23.282958)"
         id="g3846">
        <path
           id="path3842"
           d="m 255.844,409.138 c -2.897,0 -5.793,-0.344 -8.264,-1.031 l -91.4,-25.376 c -8.191,-2.274 -14.438,-9.776 -15.192,-18.244 L 119.447,122.89 c -0.458,-5.158 1.264,-10.287 4.727,-14.072 3.462,-3.785 8.417,-5.954 13.593,-5.954 h 236.465 c 5.178,0 10.134,2.171 13.598,5.959 3.461,3.786 5.182,8.916 4.721,14.073 l -6.949,77.789 c -0.694,7.782 -7.581,13.533 -15.346,12.828 -7.78,-0.694 -13.526,-7.565 -12.828,-15.346 l 5.986,-67.017 H 148.585 l 20.124,225.7 86.265,23.954 c 0.448,0.062 1.3,0.059 1.745,0 l 86.542,-23.996 6.749,-75.57 c 0.694,-7.782 7.598,-13.523 15.346,-12.828 7.78,0.694 13.526,7.565 12.828,15.346 l -7.208,80.697 c -0.758,8.465 -7.005,15.964 -15.192,18.238 l -91.686,25.423 c -2.47,0.681 -5.361,1.024 -8.254,1.024 z m -0.731,-28.295 0.037,0.01 c -0.011,-0.004 -0.024,-0.007 -0.037,-0.01 z m 1.46,0.002 c -0.011,0.003 -0.021,0.006 -0.03,0.009 z"
           style="fill:#0f768c;fill-opacity:1"
           inkscape:connector-curvature="0" />
        <path
           id="path3844"
           d="m 332.594,172.417 c -0.204,2.27 -0.556,6.21 -0.782,8.755 l -0.567,6.339 c -0.229,2.544 -0.553,6.182 -0.726,8.083 -0.171,1.902 -0.334,3.46 -0.363,3.46 -0.028,0 -2.143,0 -4.699,0 h -64.81 c -2.554,0 -4.666,0 -4.694,0 -0.028,0 -2.141,0 -4.696,0 h -34.133 c -2.554,0 -4.458,2.082 -4.232,4.626 l 1.991,22.255 c 0.226,2.544 2.503,4.626 5.059,4.626 h 31.317 c 2.554,0 4.669,0 4.696,0 0.027,0 2.14,0 4.694,0 h 53.829 c 2.554,0 6.509,0 8.786,0 2.276,0 3.97,1.857 3.764,4.127 -0.206,2.27 -0.562,6.21 -0.788,8.755 l -6.403,71.749 c -0.229,2.544 -0.518,5.796 -0.642,7.225 -0.127,1.428 -2.245,3.155 -4.707,3.839 l -54.009,14.975 c -2.462,0.682 -4.508,1.247 -4.546,1.255 -0.038,0.008 -2.083,-0.545 -4.546,-1.228 L 197.32,326.256 c -2.462,-0.683 -4.662,-3.324 -4.888,-5.868 l -3.481,-39.062 c -0.226,-2.544 1.679,-4.626 4.233,-4.626 h 4.935 c 2.554,0 6.735,0 9.291,0 h 7.358 c 2.554,0 4.83,2.082 5.059,4.626 l 1.365,15.291 c 0.226,2.544 2.43,5.171 4.897,5.837 l 25.29,6.83 c 2.465,0.666 4.493,1.212 4.505,1.212 0.011,0 2.038,-0.546 4.505,-1.212 l 25.336,-6.846 c 2.465,-0.666 4.67,-3.294 4.899,-5.837 l 2.747,-30.637 c 0.229,-2.544 -1.675,-4.626 -4.23,-4.626 H 260.65 c -2.554,0 -4.666,0 -4.694,0 -0.028,0 -2.141,0 -4.696,0 h -59.45 c -2.554,0 -4.83,-2.083 -5.056,-4.626 l -6.741,-75.538 c -0.226,-2.544 -0.578,-6.483 -0.782,-8.755 -0.202,-2.27 1.723,-4.127 4.277,-4.127 h 67.752 c 2.554,0 4.669,0 4.696,0 0.027,0 2.14,0 4.694,0 h 67.67 c 2.551,-0.002 4.476,1.855 4.274,4.125 z"
           style="fill:#0f768c;fill-opacity:1"
           inkscape:connector-curvature="0" />
      </g>
    </g>
    <g
       id="g3848"
       transform="matrix(0.6201172,0,0,0.6201172,-383.37641,-23.282958)" />
    <g
       id="g3850"
       transform="matrix(0.6201172,0,0,0.6201172,-383.37641,-23.282958)" />
    <g
       id="g3852"
       transform="matrix(0.6201172,0,0,0.6201172,-383.37641,-23.282958)" />
    <g
       id="g3854"
       transform="matrix(0.6201172,0,0,0.6201172,-383.37641,-23.282958)" />
    <g
       id="g3856"
       transform="matrix(0.6201172,0,0,0.6201172,-383.37641,-23.282958)" />
    <g
       id="g3858"
       transform="matrix(0.6201172,0,0,0.6201172,-383.37641,-23.282958)" />
    <g
       id="g3860"
       transform="matrix(0.6201172,0,0,0.6201172,-383.37641,-23.282958)" />
    <g
       id="g3862"
       transform="matrix(0.6201172,0,0,0.6201172,-383.37641,-23.282958)" />
    <g
       id="g3864"
       transform="matrix(0.6201172,0,0,0.6201172,-383.37641,-23.282958)" />
    <g
       id="g3866"
       transform="matrix(0.6201172,0,0,0.6201172,-383.37641,-23.282958)" />
    <g
       id="g3868"
       transform="matrix(0.6201172,0,0,0.6201172,-383.37641,-23.282958)" />
    <g
       id="g3870"
       transform="matrix(0.6201172,0,0,0.6201172,-383.37641,-23.282958)" />
    <g
       id="g3872"
       transform="matrix(0.6201172,0,0,0.6201172,-383.37641,-23.282958)" />
    <g
       id="g3874"
       transform="matrix(0.6201172,0,0,0.6201172,-383.37641,-23.282958)" />
    <g
       id="g3876"
       transform="matrix(0.6201172,0,0,0.6201172,-383.37641,-23.282958)" />
  </g>
</svg>
