<?xml version="1.0" encoding="UTF-8" standalone="no"?>
<!-- Created with Inkscape (http://www.inkscape.org/) -->

<svg
   xmlns:dc="http://purl.org/dc/elements/1.1/"
   xmlns:cc="http://creativecommons.org/ns#"
   xmlns:rdf="http://www.w3.org/1999/02/22-rdf-syntax-ns#"
   xmlns:svg="http://www.w3.org/2000/svg"
   xmlns="http://www.w3.org/2000/svg"
   xmlns:sodipodi="http://sodipodi.sourceforge.net/DTD/sodipodi-0.dtd"
   xmlns:inkscape="http://www.inkscape.org/namespaces/inkscape"
   width="477.76202mm"
   height="477.76202mm"
   viewBox="0 0 477.76202 477.76202"
   version="1.1"
   id="svg8"
   inkscape:version="0.92.0 r15299"
   sodipodi:docname="icon.svg">
  <defs
     id="defs2" />
  <sodipodi:namedview
     id="base"
     pagecolor="#ffffff"
     bordercolor="#666666"
     borderopacity="1.0"
     inkscape:pageopacity="0.0"
     inkscape:pageshadow="2"
     inkscape:zoom="0.175"
     inkscape:cx="-742.15314"
     inkscape:cy="828.32244"
     inkscape:document-units="mm"
     inkscape:current-layer="layer1"
     showgrid="false"
     inkscape:snap-global="false"
     fit-margin-top="0"
     fit-margin-left="0"
     fit-margin-right="0"
     fit-margin-bottom="0"
     inkscape:window-width="1920"
     inkscape:window-height="1017"
     inkscape:window-x="-8"
     inkscape:window-y="-8"
     inkscape:window-maximized="1" />
  <metadata
     id="metadata5">
    <rdf:RDF>
      <cc:Work
         rdf:about="">
        <dc:format>image/svg+xml</dc:format>
        <dc:type
           rdf:resource="http://purl.org/dc/dcmitype/StillImage" />
        <dc:title></dc:title>
      </cc:Work>
    </rdf:RDF>
  </metadata>
  <g
     inkscape:label="Livello 1"
     inkscape:groupmode="layer"
     id="layer1"
     transform="translate(151.65476,91.095395)">
    <g
       id="g5112"
       transform="matrix(0.9842696,0,0,0.9842696,-377.37798,-122.56253)" />
    <g
       id="g5114"
       transform="matrix(0.9842696,0,0,0.9842696,-377.37798,-122.56253)" />
    <g
       id="g5116"
       transform="matrix(0.9842696,0,0,0.9842696,-377.37798,-122.56253)" />
    <g
       id="g5118"
       transform="matrix(0.9842696,0,0,0.9842696,-377.37798,-122.56253)" />
    <g
       id="g5120"
       transform="matrix(0.9842696,0,0,0.9842696,-377.37798,-122.56253)" />
    <g
       id="g5122"
       transform="matrix(0.9842696,0,0,0.9842696,-377.37798,-122.56253)" />
    <g
       id="g5124"
       transform="matrix(0.9842696,0,0,0.9842696,-377.37798,-122.56253)" />
    <g
       id="g5126"
       transform="matrix(0.9842696,0,0,0.9842696,-377.37798,-122.56253)" />
    <g
       id="g5128"
       transform="matrix(0.9842696,0,0,0.9842696,-377.37798,-122.56253)" />
    <g
       id="g5130"
       transform="matrix(0.9842696,0,0,0.9842696,-377.37798,-122.56253)" />
    <g
       id="g5132"
       transform="matrix(0.9842696,0,0,0.9842696,-377.37798,-122.56253)" />
    <g
       id="g5134"
       transform="matrix(0.9842696,0,0,0.9842696,-377.37798,-122.56253)" />
    <g
       id="g5136"
       transform="matrix(0.9842696,0,0,0.9842696,-377.37798,-122.56253)" />
    <g
       id="g5138"
       transform="matrix(0.9842696,0,0,0.9842696,-377.37798,-122.56253)" />
    <g
       id="g5140"
       transform="matrix(0.9842696,0,0,0.9842696,-377.37798,-122.56253)" />
    <g
       id="g4708">
      <circle
         r="234.19707"
         cy="147.78561"
         cx="87.22625"
         id="path4665"
         style="fill:#e6e6e6;fill-opacity:1;stroke:#ff7f2a;stroke-width:9.36788273;stroke-miterlimit:4;stroke-dasharray:none;stroke-opacity:1" />
      <path
         inkscape:connector-curvature="0"
         id="path4661"
         d="M -4.8286494,329.88481 C -9.84782,324.86565 -11.683199,278.24602 -11.683199,155.7739 V -11.482489 L 2.5971303,-15.06663 c 7.8541617,-1.971307 20.7064287,-1.971307 28.5606027,0 l 14.280315,3.584141 V 155.7739 c 0,178.73647 -0.35168,180.96546 -28.560622,180.96546 -8.1683257,0 -17.9360757,-3.08454 -21.7060754,-6.85455 z M 36.125652,312.46284 c 5.464445,-20.39054 4.149878,-60.39141 -2.111849,-64.26138 -3.586325,-2.21646 -5.712113,10.41292 -5.712113,33.93562 0,33.65782 -1.16128,37.46591 -11.424264,37.46591 -10.1422678,0 -11.4242504,-3.80809 -11.4242504,-33.93563 0,-18.66459 -2.570442,-35.52424 -5.71211263,-37.4659 -6.27077927,-3.87557 -8.13717687,52.72335 -2.24493147,68.07829 5.5693695,14.51358 34.4827615,11.65671 38.6295205,-3.81691 z M 22.589549,159.66355 c 0,-95.202057 -2.050536,-148.515214 -5.712123,-148.515214 -3.661625,0 -5.712114,53.313157 -5.712114,148.515214 0,95.20205 2.050536,148.51521 5.712114,148.51521 3.661624,0 5.712123,-53.31316 5.712123,-148.51521 z M 30.275175,-1.7039304 c -1.456191,-2.3562566 -7.485238,-4.2841087 -13.397749,-4.2841087 -5.912504,0 -11.9414868,1.9279102 -13.3977353,4.2841087 -1.4561905,2.35623324 4.5727566,4.2840844 13.3977353,4.2840844 8.824986,0 14.853996,-1.92791018 13.397749,-4.2840844 z M 132.26232,329.88481 c -5.01917,-5.01916 -6.85456,-51.63879 -6.85456,-174.11091 V -11.482489 l 14.28034,-3.584141 c 7.85416,-1.971307 20.70643,-1.971307 28.5606,0 l 14.28032,3.584141 V 155.7739 c 0,178.73647 -0.35168,180.96546 -28.56063,180.96546 -8.16834,0 -17.93607,-3.08454 -21.70607,-6.85455 z m 40.95429,-17.42197 c 5.46444,-20.39054 4.14988,-60.39141 -2.11185,-64.26138 -3.58632,-2.21646 -5.71212,10.41292 -5.71212,33.93562 0,33.65782 -1.16128,37.46591 -11.42425,37.46591 -10.14227,0 -11.42425,-3.80809 -11.42425,-33.93563 0,-18.66459 -2.57045,-35.52424 -5.71212,-37.4659 -6.27077,-3.87557 -8.13718,52.72335 -2.24492,68.07829 5.56936,14.51358 34.48276,11.65671 38.62951,-3.81691 z m -13.5361,-152.79929 c 0,-95.202057 -2.05054,-148.515214 -5.71212,-148.515214 -3.66162,0 -5.71211,53.313157 -5.71211,148.515214 0,95.20205 2.05054,148.51521 5.71211,148.51521 3.66163,0 5.71212,-53.31316 5.71212,-148.51521 z m 7.68561,-161.3674804 c -1.45618,-2.3562566 -7.48523,-4.2841087 -13.39773,-4.2841087 -5.91251,0 -11.94149,1.9279102 -13.39774,4.2841087 -1.45619,2.35623324 4.57275,4.2840844 13.39774,4.2840844 8.82499,0 14.85398,-1.92791018 13.39773,-4.2840844 z M -73.374124,261.33934 c -4.802433,-4.80244 -6.85455,-36.40646 -6.85455,-105.56544 V 57.062986 l 14.280317,-3.58414 c 7.854174,-1.971296 20.706441,-1.971296 28.560614,0 l 14.280317,3.58414 V 155.7739 c 0,105.72713 -1.700364,112.41998 -28.560624,112.41998 -8.168337,0 -17.936075,-3.08454 -21.706074,-6.85454 z m 36.014976,-13.13788 c 0.507997,-3.14167 -0.146807,-3.7843 -1.456612,-1.42811 -3.840539,6.91294 -24.276528,4.90943 -24.276528,-2.38006 0,-3.66526 -1.542539,-5.12151 -3.428048,-3.2361 -1.885379,1.88538 -1.642927,6.31651 0.539087,9.84686 4.70804,7.61777 27.295175,5.40606 28.622218,-2.80266 z m -8.596788,-88.53791 c 0,-49.50508 -2.176031,-79.969739 -5.712114,-79.969739 -3.536083,0 -5.712113,30.464659 -5.712113,79.969739 0,49.50507 2.17603,79.96974 5.712113,79.96974 3.536083,0 5.712114,-30.46467 5.712114,-79.96974 z m 7.685621,-92.822006 c -1.456179,-2.356256 -7.485231,-4.284096 -13.397735,-4.284096 -5.912504,0 -11.941485,1.92791 -13.397735,4.284096 -1.45619,2.356245 4.572744,4.284085 13.397735,4.284085 8.824991,0 14.853984,-1.92791 13.397735,-4.284085 z M 63.716829,261.33934 C 58.914384,256.5369 56.862284,224.93288 56.862284,155.7739 V 57.062986 l 14.280315,-3.58414 c 7.854178,-1.971296 20.706448,-1.971296 28.560612,0 l 14.280329,3.58414 V 155.7739 c 0,105.72713 -1.70037,112.41998 -28.560626,112.41998 -8.168338,0 -17.936084,-3.08454 -21.706085,-6.85454 z M 99.703211,159.66355 V 65.413516 H 85.422914 71.142599 l -1.583125,88.298074 c -0.870698,48.56392 -0.23964,91.79935 1.402428,96.0787 1.642068,4.27933 8.780709,6.95771 15.863525,5.95196 12.768133,-1.81306 12.877803,-2.63137 12.877784,-96.0787 z m -23.009439,84.46616 c -1.662574,-4.33283 -2.306625,-45.03124 -1.43114,-90.44095 1.327944,-68.873809 3.012612,-82.563131 10.16017,-82.563131 7.245635,0 8.568193,13.592751 8.568193,88.061901 0,65.35232 -1.84048,88.67541 -7.137156,90.44096 -3.925442,1.30851 -8.497506,-1.16604 -10.16017,-5.49878 z m 14.441255,-84.46616 c 0,-49.50508 -2.176028,-79.969739 -5.712113,-79.969739 -3.536085,0 -5.712126,30.464659 -5.712126,79.969739 0,49.50507 2.176041,79.96974 5.712126,79.96974 3.536085,0 5.712113,-30.46467 5.712113,-79.96974 z M 200.80779,261.33934 c -4.80243,-4.80244 -6.85455,-36.40646 -6.85455,-105.56544 V 57.062986 l 14.28033,-3.58414 c 7.85416,-1.971296 20.70643,-1.971296 28.5606,0 l 14.28032,3.58414 V 155.7739 c 0,105.72713 -1.70035,112.41998 -28.56063,112.41998 -8.16832,0 -17.93606,-3.08454 -21.70607,-6.85454 z m 36.01499,-13.13788 c 0.50778,-3.14167 -0.1468,-3.7843 -1.45662,-1.42811 -3.84055,6.91294 -24.27654,4.90943 -24.27654,-2.38006 0,-3.66526 -1.54255,-5.12151 -3.42806,-3.2361 -1.88538,1.88538 -1.64294,6.31651 0.53908,9.84686 4.70805,7.61777 27.29518,5.40606 28.62222,-2.80266 z m -8.59679,-88.53791 c 0,-49.50508 -2.17604,-79.969739 -5.71213,-79.969739 -3.53608,0 -5.71211,30.464659 -5.71211,79.969739 0,49.50507 2.17603,79.96974 5.71211,79.96974 3.53609,0 5.71213,-30.46467 5.71213,-79.96974 z m 7.68562,-92.822006 c -1.45619,-2.356256 -7.48523,-4.284096 -13.39775,-4.284096 -5.9125,0 -11.94148,1.92791 -13.39773,4.284096 -1.45618,2.356245 4.57276,4.284085 13.39773,4.284085 8.825,0 14.854,-1.92791 13.39775,-4.284085 z M -141.9196,209.93022 c -4.22765,-4.22764 -6.85455,-24.98222 -6.85455,-54.15632 0,-45.6914 0.48619,-47.42382 14.28032,-50.88594 7.85417,-1.97131 20.70644,-1.97131 28.5606,0 13.794138,3.46212 14.280325,5.19454 14.280325,50.88594 0,51.34283 -4.525858,61.01087 -28.560615,61.01087 -8.16834,0 -17.93608,-3.08455 -21.70608,-6.85455 z m 35.98637,-50.26667 c 0,-41.88891 -0.31736,-42.84093 -14.28029,-42.84093 -13.56404,0 -14.36668,1.83227 -16.00236,36.52717 -2.11207,44.79964 0.80376,53.3407 17.40485,50.98335 12.05508,-1.71181 12.8778,-4.56563 12.8778,-44.66959 z m -23.1699,32.63884 c -1.75088,-4.56283 -2.39489,-22.12716 -1.43093,-39.03184 1.29621,-22.73377 3.98317,-30.73581 10.32064,-30.73581 11.22628,0 12.58699,71.96599 1.43115,75.68464 -3.92544,1.30851 -8.56972,-1.35429 -10.32064,-5.91699 z m 14.60172,-32.63884 c 0,-15.70833 -2.57044,-28.56063 -5.71211,-28.56063 -3.14167,0 -5.71212,12.8523 -5.71212,28.56063 0,15.70833 2.57045,28.56062 5.71212,28.56062 3.14167,0 5.71211,-12.85229 5.71211,-28.56062 z m 383.85469,50.26667 c -4.22765,-4.22764 -6.85455,-24.98222 -6.85455,-54.15632 0,-45.6914 0.48618,-47.42382 14.28032,-50.88594 7.85417,-1.97131 20.70644,-1.97131 28.5606,0 13.79413,3.46212 14.28032,5.19454 14.28032,50.88594 0,51.34283 -4.52585,61.01087 -28.56062,61.01087 -8.16833,0 -17.93607,-3.08455 -21.70607,-6.85455 z m 35.98637,-50.26667 c 0,-41.88891 -0.31737,-42.84093 -14.2803,-42.84093 -13.56404,0 -14.36668,1.83227 -16.00236,36.52717 -2.11207,44.79964 0.80377,53.3407 17.40486,50.98335 12.05508,-1.71181 12.8778,-4.56563 12.8778,-44.66959 z m -23.1699,32.63884 c -1.75088,-4.56283 -2.39489,-22.12716 -1.43114,-39.03184 1.2962,-22.73377 3.98317,-30.73581 10.32064,-30.73581 11.22627,0 12.58699,71.96599 1.43114,75.68464 -3.92544,1.30851 -8.56973,-1.35429 -10.32064,-5.91699 z m 14.60172,-32.63884 c 0,-15.70833 -2.57045,-28.56063 -5.71212,-28.56063 -3.14167,0 -5.71211,12.8523 -5.71211,28.56063 0,15.70833 2.57044,28.56062 5.71211,28.56062 3.14167,0 5.71212,-12.85229 5.71212,-28.56062 z"
         style="fill:#ff7f2a;stroke-width:5.71212292" />
      <circle
         r="102.94118"
         cy="160.65318"
         cx="86.942726"
         id="path4665-7"
         style="fill:#cccccc;fill-opacity:0.78431373;stroke:#ff7f2a;stroke-width:4.11764717;stroke-miterlimit:4;stroke-dasharray:none;stroke-opacity:1" />
      <g
         transform="matrix(1.0000001,0,0,1.0020797,454.15426,183.00541)"
         id="g4503">
        <ellipse
           style="fill:#ffffff;fill-opacity:1;stroke:none;stroke-width:5.52269316;stroke-miterlimit:4;stroke-dasharray:none;stroke-opacity:1"
           id="path4716-6"
           cx="-368.98172"
           cy="-23.522081"
           rx="97.238647"
           ry="94.970795" />
        <path
           style="fill:#000000;fill-opacity:0;stroke:#8eb4da;stroke-width:5.52269316;stroke-miterlimit:4;stroke-dasharray:none;stroke-opacity:1"
           id="path4716"
           sodipodi:type="arc"
           sodipodi:cx="-368.38943"
           sodipodi:cy="-24.384493"
           sodipodi:rx="97.238647"
           sodipodi:ry="94.970795"
           sodipodi:start="0"
           sodipodi:end="3.1415927"
           sodipodi:open="true"
           d="m -271.15079,-24.384493 a 97.238647,94.970795 0 0 1 -48.61932,82.247122 97.238647,94.970795 0 0 1 -97.23865,-3e-6 97.238647,94.970795 0 0 1 -48.61932,-82.247123" />
        <path
           style="fill:none;fill-opacity:0.39215686;stroke:#2d7deb;stroke-width:30.13796806;stroke-miterlimit:4;stroke-dasharray:none;stroke-opacity:1"
           id="path4682-5"
           sodipodi:type="arc"
           sodipodi:cx="32.422241"
           sodipodi:cy="393.48676"
           sodipodi:rx="49.942917"
           sodipodi:ry="49.942917"
           sodipodi:start="0"
           sodipodi:end="4.5637984"
           sodipodi:open="true"
           d="M 82.365158,393.48676 A 49.942917,49.942917 0 0 1 34.894912,443.36842 49.942917,49.942917 0 0 1 -17.275832,398.42603 49.942917,49.942917 0 0 1 25.028472,344.09417"
           transform="matrix(0,-1,-1,0,0,0)" />
        <path
           style="fill:none;fill-opacity:0.39215686;stroke:#2d82ff;stroke-width:30.13796806;stroke-miterlimit:4;stroke-dasharray:none;stroke-opacity:0.39215686"
           id="path4682-5-3"
           sodipodi:type="arc"
           sodipodi:cx="348.99542"
           sodipodi:cy="10.696428"
           sodipodi:rx="49.942917"
           sodipodi:ry="49.942917"
           sodipodi:start="0"
           sodipodi:end="4.5637984"
           sodipodi:open="true"
           d="m 398.93834,10.696428 a 49.942917,49.942917 0 0 1 -47.47025,49.881669 49.942917,49.942917 0 0 1 -52.17074,-44.942391 49.942917,49.942917 0 0 1 42.3043,-54.331859"
           transform="scale(-1)" />
      </g>
    </g>
  </g>
</svg>
