<?xml version="1.0" encoding="UTF-8" standalone="no"?>
<!-- Created with Inkscape (http://www.inkscape.org/) -->

<svg
   xmlns:dc="http://purl.org/dc/elements/1.1/"
   xmlns:cc="http://creativecommons.org/ns#"
   xmlns:rdf="http://www.w3.org/1999/02/22-rdf-syntax-ns#"
   xmlns:svg="http://www.w3.org/2000/svg"
   xmlns="http://www.w3.org/2000/svg"
   xmlns:sodipodi="http://sodipodi.sourceforge.net/DTD/sodipodi-0.dtd"
   xmlns:inkscape="http://www.inkscape.org/namespaces/inkscape"
   width="1200"
   height="1200"
   viewBox="0 0 317.5 317.50001"
   version="1.1"
   id="svg8"
   inkscape:version="0.92.3 (2405546, 2018-03-11)"
   sodipodi:docname="icon.svg">
  <defs
     id="defs2" />
  <sodipodi:namedview
     id="base"
     pagecolor="#ffffff"
     bordercolor="#666666"
     borderopacity="1.0"
     inkscape:pageopacity="0.0"
     inkscape:pageshadow="2"
     inkscape:zoom="0.35000001"
     inkscape:cx="332.36057"
     inkscape:cy="597.83464"
     inkscape:document-units="px"
     inkscape:current-layer="layer1"
     showgrid="false"
     units="px"
     inkscape:snap-global="false"
     fit-margin-top="0"
     fit-margin-left="0"
     fit-margin-right="0"
     fit-margin-bottom="0"
     inkscape:window-width="1366"
     inkscape:window-height="705"
     inkscape:window-x="-8"
     inkscape:window-y="-8"
     inkscape:window-maximized="1" />
  <metadata
     id="metadata5">
    <rdf:RDF>
      <cc:Work
         rdf:about="">
        <dc:format>image/svg+xml</dc:format>
        <dc:type
           rdf:resource="http://purl.org/dc/dcmitype/StillImage" />
        <dc:title />
      </cc:Work>
    </rdf:RDF>
  </metadata>
  <g
     inkscape:label="Livello 1"
     inkscape:groupmode="layer"
     id="layer1"
     transform="translate(28.07879,32.354387)">
    <g
       id="logo"
       transform="matrix(0.65217493,0,0,0.65217493,-853.31154,-211.72752)" />
    <g
       id="g4688"
       transform="matrix(8.5528777,0,0,8.5528777,-520.15057,46.170269)" />
    <g
       id="g4690"
       transform="matrix(8.5528777,0,0,8.5528777,-520.15057,46.170269)" />
    <g
       id="g4692"
       transform="matrix(8.5528777,0,0,8.5528777,-520.15057,46.170269)" />
    <g
       id="g4694"
       transform="matrix(8.5528777,0,0,8.5528777,-520.15057,46.170269)" />
    <g
       id="g4696"
       transform="matrix(8.5528777,0,0,8.5528777,-520.15057,46.170269)" />
    <g
       id="g4698"
       transform="matrix(8.5528777,0,0,8.5528777,-520.15057,46.170269)" />
    <g
       id="g4700"
       transform="matrix(8.5528777,0,0,8.5528777,-520.15057,46.170269)" />
    <g
       id="g4702"
       transform="matrix(8.5528777,0,0,8.5528777,-520.15057,46.170269)" />
    <g
       id="g4704"
       transform="matrix(8.5528777,0,0,8.5528777,-520.15057,46.170269)" />
    <g
       id="g4706"
       transform="matrix(8.5528777,0,0,8.5528777,-520.15057,46.170269)" />
    <g
       id="g4708"
       transform="matrix(8.5528777,0,0,8.5528777,-520.15057,46.170269)" />
    <g
       id="g4710"
       transform="matrix(8.5528777,0,0,8.5528777,-520.15057,46.170269)" />
    <g
       id="g4712"
       transform="matrix(8.5528777,0,0,8.5528777,-520.15057,46.170269)" />
    <g
       id="g4714"
       transform="matrix(8.5528777,0,0,8.5528777,-520.15057,46.170269)" />
    <g
       id="g4716"
       transform="matrix(8.5528777,0,0,8.5528777,-520.15057,46.170269)" />
    <g
       id="g3848"
       transform="matrix(0.6201172,0,0,0.6201172,-383.37641,-23.282958)" />
    <g
       id="g3850"
       transform="matrix(0.6201172,0,0,0.6201172,-383.37641,-23.282958)" />
    <g
       id="g3852"
       transform="matrix(0.6201172,0,0,0.6201172,-383.37641,-23.282958)" />
    <g
       id="g3854"
       transform="matrix(0.6201172,0,0,0.6201172,-383.37641,-23.282958)" />
    <g
       id="g3856"
       transform="matrix(0.6201172,0,0,0.6201172,-383.37641,-23.282958)" />
    <g
       id="g3858"
       transform="matrix(0.6201172,0,0,0.6201172,-383.37641,-23.282958)" />
    <g
       id="g3860"
       transform="matrix(0.6201172,0,0,0.6201172,-383.37641,-23.282958)" />
    <g
       id="g3862"
       transform="matrix(0.6201172,0,0,0.6201172,-383.37641,-23.282958)" />
    <g
       id="g3864"
       transform="matrix(0.6201172,0,0,0.6201172,-383.37641,-23.282958)" />
    <g
       id="g3866"
       transform="matrix(0.6201172,0,0,0.6201172,-383.37641,-23.282958)" />
    <g
       id="g3868"
       transform="matrix(0.6201172,0,0,0.6201172,-383.37641,-23.282958)" />
    <g
       id="g3870"
       transform="matrix(0.6201172,0,0,0.6201172,-383.37641,-23.282958)" />
    <g
       id="g3872"
       transform="matrix(0.6201172,0,0,0.6201172,-383.37641,-23.282958)" />
    <g
       id="g3874"
       transform="matrix(0.6201172,0,0,0.6201172,-383.37641,-23.282958)" />
    <g
       id="g3876"
       transform="matrix(0.6201172,0,0,0.6201172,-383.37641,-23.282958)" />
    <g
       id="g1019"
       transform="matrix(0.59031722,0,0,0.59031722,-20.450466,-24.726142)">
      <g
         id="g929">
	<g
   id="g927">
		<path
   id="path925"
   d="m 502.725,153.996 c -11.481,-18.55 -27.791,-27.777 -49.864,-28.208 -17.858,-0.364 -37.731,4.797 -62.889,11.315 -9.539,2.471 -19.931,5.157 -31.029,7.73 v 51.225 c 0,3.516 -1.245,6.933 -3.506,9.623 -2.61,3.088 -27.494,30.194 -99.407,30.194 -71.913,0 -96.797,-27.106 -99.407,-30.194 -2.261,-2.69 -3.507,-6.106 -3.507,-9.623 v -51.225 c -11.098,-2.573 -21.49,-5.26 -31.029,-7.73 -25.157,-6.517 -45.035,-11.683 -62.889,-11.315 -22.073,0.432 -38.382,9.659 -49.862,28.206 -12.584,20.325 -12.441,44.215 0.4,67.268 14.402,25.855 44.392,49.029 84.447,65.252 44.178,17.892 100.142,27.351 161.846,27.351 30.823,0 60.218,-2.322 87.369,-6.902 81.691,-13.782 142.306,-48.208 162.146,-92.087 9.493,-20.993 8.49,-42.614 -2.819,-60.88 z"
   inkscape:connector-curvature="0"
   style="fill:#0f768c" />

	</g>

</g>
      <g
         id="g939">
	<g
   id="g937">
		<g
   id="g935">
			<path
   id="path931"
   d="m 328.548,189.621 c -0.003,0.002 -0.006,0.004 -0.009,0.006 -0.025,0.017 -0.048,0.033 -0.072,0.05 0.028,-0.019 0.053,-0.037 0.081,-0.056 z"
   inkscape:connector-curvature="0"
   style="fill:#0f768c" />

			<path
   id="path933"
   d="m 329.057,161.44 c -0.03,0.01 -0.06,0.02 -0.09,0.04 -15.59,6.684 -39.04,12.711 -72.939,12.711 -33.899,0 -57.349,-6.027 -72.939,-12.711 -0.03,-0.02 -0.06,-0.03 -0.09,-0.04 v 27.741 0.002 c 0.236,0.165 0.487,0.337 0.747,0.511 0.087,0.058 0.178,0.118 0.266,0.175 0.182,0.121 0.365,0.241 0.558,0.366 0.112,0.072 0.231,0.146 0.347,0.219 0.179,0.114 0.36,0.227 0.549,0.344 0.133,0.083 0.272,0.166 0.41,0.249 0.183,0.112 0.369,0.222 0.56,0.336 0.151,0.09 0.307,0.179 0.463,0.271 0.192,0.111 0.388,0.223 0.587,0.336 0.167,0.095 0.338,0.189 0.51,0.286 0.2,0.111 0.406,0.223 0.615,0.335 0.185,0.101 0.372,0.2 0.563,0.301 0.211,0.112 0.43,0.224 0.649,0.337 0.198,0.103 0.395,0.204 0.601,0.308 0.227,0.115 0.464,0.23 0.699,0.346 0.211,0.104 0.418,0.207 0.637,0.311 0.245,0.117 0.501,0.235 0.754,0.354 0.221,0.104 0.436,0.206 0.664,0.31 0.464,0.211 0.941,0.423 1.431,0.636 0.256,0.111 0.525,0.222 0.788,0.333 0.262,0.111 0.519,0.221 0.788,0.331 0.283,0.117 0.577,0.232 0.868,0.349 0.263,0.106 0.524,0.21 0.794,0.315 0.302,0.118 0.614,0.235 0.924,0.352 0.273,0.103 0.546,0.206 0.825,0.309 0.323,0.119 0.652,0.236 0.984,0.355 0.282,0.1 0.565,0.2 0.853,0.3 0.344,0.119 0.692,0.237 1.045,0.355 0.29,0.097 0.583,0.193 0.879,0.289 0.365,0.119 0.732,0.237 1.107,0.354 0.299,0.094 0.604,0.186 0.909,0.28 0.386,0.117 0.774,0.235 1.17,0.352 0.304,0.089 0.616,0.176 0.925,0.265 0.413,0.118 0.825,0.235 1.249,0.351 0.298,0.082 0.605,0.16 0.908,0.24 0.451,0.12 0.898,0.24 1.362,0.358 0.202,0.051 0.412,0.101 0.617,0.15 1.086,0.27 2.205,0.532 3.354,0.787 0.23,0.051 0.453,0.104 0.685,0.154 0.499,0.108 1.013,0.211 1.524,0.317 0.345,0.071 0.684,0.142 1.034,0.211 0.501,0.099 1.015,0.194 1.527,0.29 0.375,0.07 0.746,0.14 1.127,0.208 0.514,0.092 1.037,0.18 1.562,0.269 0.397,0.067 0.796,0.135 1.199,0.199 0.527,0.085 1.062,0.167 1.6,0.249 0.418,0.063 0.839,0.125 1.263,0.186 0.546,0.079 1.097,0.154 1.654,0.229 0.432,0.058 0.87,0.114 1.309,0.168 0.566,0.072 1.134,0.141 1.71,0.208 0.447,0.052 0.904,0.101 1.358,0.15 0.589,0.064 1.176,0.128 1.776,0.187 0.455,0.045 0.921,0.086 1.384,0.128 0.617,0.057 1.229,0.115 1.857,0.166 0.448,0.037 0.909,0.068 1.363,0.103 5.295,0.4 10.989,0.631 17.139,0.631 42.983,0 64.374,-10.82 72.51,-16.361 0.177,-0.12 0.355,-0.24 0.518,-0.355 z"
   inkscape:connector-curvature="0"
   style="fill:#0f768c" />

		</g>

	</g>

</g>
      <g
         id="g945">
	<g
   id="g943">
		<path
   id="path941"
   d="m 320.671,53.627 c -2.52,-1.494 -9.224,-4.493 -16.925,-0.239 l -40.484,22.394 c -4.503,2.48 -9.962,2.48 -14.464,0 L 208.304,53.388 c -7.69,-4.254 -14.395,-1.255 -16.915,0.239 -2.52,1.484 -8.388,5.897 -8.388,14.683 v 59.192 c 7.949,5.559 29.447,16.805 73.029,16.805 43.911,0 65.298,-11.297 73.029,-16.716 V 68.31 c 0,-8.786 -5.868,-13.199 -8.388,-14.683 z"
   inkscape:connector-curvature="0"
   style="fill:#0f768c" />

	</g>

</g>
      <g
         id="g951">
	<g
   id="g949">
		<path
   id="path947"
   d="m 348.371,336.431 c -10.545,1.778 -21.399,3.232 -32.514,4.365 -9.403,21.399 -25.035,39.863 -45.535,52.882 l -14.453,9.178 -12.314,-7.515 c -21.249,-12.967 -37.665,-32.265 -47.412,-54.586 -11.464,-1.18 -22.659,-2.705 -33.542,-4.567 3.144,10.438 7.415,20.543 12.776,30.095 12.543,22.349 30.736,41.217 52.61,54.568 l 4.045,2.469 -11.973,11.973 c -5.836,5.836 -5.836,15.296 0,21.132 2.918,2.918 6.742,4.377 10.565,4.377 3.823,0 7.648,-1.459 10.565,-4.376 l 14.836,-14.836 13.095,13.095 c 5.834,5.836 15.296,5.836 21.132,0 5.836,-5.836 5.836,-15.296 0,-21.132 l -10.476,-10.476 6.566,-4.17 c 21.239,-13.488 38.871,-32.273 50.991,-54.323 4.952,-9.012 8.933,-18.514 11.93,-28.312 -0.299,0.051 -0.593,0.109 -0.892,0.159 z"
   inkscape:connector-curvature="0"
   style="fill:#0f768c" />

	</g>

</g>
      <g
         id="g953">
</g>
      <g
         id="g955">
</g>
      <g
         id="g957">
</g>
      <g
         id="g959">
</g>
      <g
         id="g961">
</g>
      <g
         id="g963">
</g>
      <g
         id="g965">
</g>
      <g
         id="g967">
</g>
      <g
         id="g969">
</g>
      <g
         id="g971">
</g>
      <g
         id="g973">
</g>
      <g
         id="g975">
</g>
      <g
         id="g977">
</g>
      <g
         id="g979">
</g>
      <g
         id="g981">
</g>
    </g>
  </g>
</svg>
