<?xml version="1.0" encoding="UTF-8" standalone="no"?>
<!-- Created with Inkscape (http://www.inkscape.org/) -->

<svg
   xmlns:dc="http://purl.org/dc/elements/1.1/"
   xmlns:cc="http://creativecommons.org/ns#"
   xmlns:rdf="http://www.w3.org/1999/02/22-rdf-syntax-ns#"
   xmlns:svg="http://www.w3.org/2000/svg"
   xmlns="http://www.w3.org/2000/svg"
   xmlns:sodipodi="http://sodipodi.sourceforge.net/DTD/sodipodi-0.dtd"
   xmlns:inkscape="http://www.inkscape.org/namespaces/inkscape"
   width="1200"
   height="1200"
   viewBox="0 0 317.5 317.50001"
   version="1.1"
   id="svg8"
   inkscape:version="0.92.2 (5c3e80d, 2017-08-06)"
   sodipodi:docname="icon.svg">
  <defs
     id="defs2" />
  <sodipodi:namedview
     id="base"
     pagecolor="#ffffff"
     bordercolor="#666666"
     borderopacity="1.0"
     inkscape:pageopacity="0.0"
     inkscape:pageshadow="2"
     inkscape:zoom="0.35000001"
     inkscape:cx="54.855202"
     inkscape:cy="304.57602"
     inkscape:document-units="px"
     inkscape:current-layer="layer1"
     showgrid="false"
     units="px"
     inkscape:snap-global="false"
     fit-margin-top="0"
     fit-margin-left="0"
     fit-margin-right="0"
     fit-margin-bottom="0"
     inkscape:window-width="1920"
     inkscape:window-height="1017"
     inkscape:window-x="-8"
     inkscape:window-y="-8"
     inkscape:window-maximized="1" />
  <metadata
     id="metadata5">
    <rdf:RDF>
      <cc:Work
         rdf:about="">
        <dc:format>image/svg+xml</dc:format>
        <dc:type
           rdf:resource="http://purl.org/dc/dcmitype/StillImage" />
        <dc:title></dc:title>
      </cc:Work>
    </rdf:RDF>
  </metadata>
  <g
     inkscape:label="Livello 1"
     inkscape:groupmode="layer"
     id="layer1"
     transform="translate(29.893073,32.807963)">
    <g
       id="logo"
       transform="matrix(0.65217493,0,0,0.65217493,-853.31154,-211.72752)" />
    <g
       id="g4688"
       transform="matrix(8.5528777,0,0,8.5528777,-520.15057,46.170269)" />
    <g
       id="g4690"
       transform="matrix(8.5528777,0,0,8.5528777,-520.15057,46.170269)" />
    <g
       id="g4692"
       transform="matrix(8.5528777,0,0,8.5528777,-520.15057,46.170269)" />
    <g
       id="g4694"
       transform="matrix(8.5528777,0,0,8.5528777,-520.15057,46.170269)" />
    <g
       id="g4696"
       transform="matrix(8.5528777,0,0,8.5528777,-520.15057,46.170269)" />
    <g
       id="g4698"
       transform="matrix(8.5528777,0,0,8.5528777,-520.15057,46.170269)" />
    <g
       id="g4700"
       transform="matrix(8.5528777,0,0,8.5528777,-520.15057,46.170269)" />
    <g
       id="g4702"
       transform="matrix(8.5528777,0,0,8.5528777,-520.15057,46.170269)" />
    <g
       id="g4704"
       transform="matrix(8.5528777,0,0,8.5528777,-520.15057,46.170269)" />
    <g
       id="g4706"
       transform="matrix(8.5528777,0,0,8.5528777,-520.15057,46.170269)" />
    <g
       id="g4708"
       transform="matrix(8.5528777,0,0,8.5528777,-520.15057,46.170269)" />
    <g
       id="g4710"
       transform="matrix(8.5528777,0,0,8.5528777,-520.15057,46.170269)" />
    <g
       id="g4712"
       transform="matrix(8.5528777,0,0,8.5528777,-520.15057,46.170269)" />
    <g
       id="g4714"
       transform="matrix(8.5528777,0,0,8.5528777,-520.15057,46.170269)" />
    <g
       id="g4716"
       transform="matrix(8.5528777,0,0,8.5528777,-520.15057,46.170269)" />
    <path
       style="fill:#0f768c;fill-opacity:1;stroke-width:0.72318453"
       d="M 4.1247837,-22.794468 27.568254,249.87227 132.77052,280.15632 238.26298,249.82963 261.73173,-22.794468 Z M 52.061186,32.941446 h 80.755484 0.11127 80.67457 l -5.82199,67.686974 -0.78709,8.98 -7.57826,88.04046 -0.48491,5.6497 -66.00232,18.96826 v 0.006 l -0.14857,0.0426 -66.060484,-19.01723 -4.518378,-52.50788 h 14.920699 17.452684 l 2.296173,26.6712 35.916896,10.05647 0.14098,-0.0393 v -0.004 l 35.85746,-10.03546 3.74331,-43.37123 H 132.92794 60.75971 l -2.890447,-33.44013 h 75.058677 42.397 l 2.9347,-34.24503 h -45.3317 -77.935214 z"
       id="path887"
       inkscape:connector-curvature="0" />
  </g>
</svg>
