<?xml version="1.0" encoding="UTF-8" standalone="no"?>
<!-- Created with Inkscape (http://www.inkscape.org/) -->

<svg
   xmlns:dc="http://purl.org/dc/elements/1.1/"
   xmlns:cc="http://creativecommons.org/ns#"
   xmlns:rdf="http://www.w3.org/1999/02/22-rdf-syntax-ns#"
   xmlns:svg="http://www.w3.org/2000/svg"
   xmlns="http://www.w3.org/2000/svg"
   xmlns:sodipodi="http://sodipodi.sourceforge.net/DTD/sodipodi-0.dtd"
   xmlns:inkscape="http://www.inkscape.org/namespaces/inkscape"
   width="64"
   height="64"
   viewBox="0 0 16.933334 16.933332"
   version="1.1"
   id="svg8"
   inkscape:version="0.92.3 (2405546, 2018-03-11)"
   sodipodi:docname="icon.svg">
  <defs
     id="defs2" />
  <sodipodi:namedview
     id="base"
     pagecolor="#ffffff"
     bordercolor="#666666"
     borderopacity="1.0"
     inkscape:pageopacity="0.0"
     inkscape:pageshadow="2"
     inkscape:zoom="5.6"
     inkscape:cx="50.033861"
     inkscape:cy="12.902782"
     inkscape:document-units="px"
     inkscape:current-layer="layer1"
     showgrid="false"
     inkscape:window-width="1920"
     inkscape:window-height="1057"
     inkscape:window-x="-8"
     inkscape:window-y="-8"
     inkscape:window-maximized="1"
     units="px"
     fit-margin-top="0"
     fit-margin-left="0"
     fit-margin-right="0"
     fit-margin-bottom="0" />
  <metadata
     id="metadata5">
    <rdf:RDF>
      <cc:Work
         rdf:about="">
        <dc:format>image/svg+xml</dc:format>
        <dc:type
           rdf:resource="http://purl.org/dc/dcmitype/StillImage" />
        <dc:title></dc:title>
      </cc:Work>
    </rdf:RDF>
  </metadata>
  <g
     inkscape:label="Layer 1"
     inkscape:groupmode="layer"
     id="layer1"
     transform="translate(-610.6505,-267.38926)">
    <g
       id="g943"
       transform="matrix(0.36470556,0,0,0.36470556,628.15236,227.95766)">
      <g
         style="fill:#d04100;fill-opacity:1"
         transform="matrix(0.63588155,0,0,0.63588155,-45.938753,107.16705)"
         id="Paint_bucket-repair-construction"
         data-name="Paint bucket-repair-construction">
        <path
           style="fill:#d04100;fill-opacity:1"
           inkscape:connector-curvature="0"
           d="M 51,44.046 V 28.97 l -3,0.022 V 32 a 4,4 0 0 1 -8,0 v -1 h -2 v 3.5 a 4.49,4.49 0 0 1 -4,4.449 V 40 A 5,5 0 0 1 24,40 V 35 H 22.874 A 4,4 0 0 1 15,34 V 32 H 13 V 44.046 A 21.817,21.817 0 0 1 10,33 H 8 a 23.874,23.874 0 0 0 5,14.638 V 56 h 4 v 2 h -4 v 2 H 51 V 47.638 A 23.874,23.874 0 0 0 56,33 H 54 A 21.817,21.817 0 0 1 51,44.046 Z M 21,58 h -2 v -2 h 2 z M 43.256,38.332 a 1.033,1.033 0 0 1 1.488,0 C 45.288,38.938 48,42.059 48,44 a 4,4 0 0 1 -8,0 c 0,-1.941 2.712,-5.062 3.256,-5.668 z"
           id="path894" />
        <rect
           style="fill:#d04100;fill-opacity:1"
           x="53"
           y="26"
           width="4"
           height="6"
           id="rect896" />
        <rect
           style="fill:#d04100;fill-opacity:1"
           x="7"
           y="26"
           width="4"
           height="6"
           id="rect898" />
        <path
           style="fill:#d04100;fill-opacity:1"
           inkscape:connector-curvature="0"
           d="m 48.134,10.25 a 4,4 0 1 0 -6.928,-4 L 32.692,21 h 9.24 z m -5.2,-3 v 0 A 2,2 0 1 1 43.665,9.983 2,2 0 0 1 42.938,7.25 Z"
           id="path900" />
        <path
           style="fill:#d04100;fill-opacity:1"
           inkscape:connector-curvature="0"
           d="m 17,31 v 3 a 2,2 0 0 0 4,0 1,1 0 0 1 1,-1 h 3 a 1,1 0 0 1 1,1 v 6 a 3,3 0 0 0 6,0 V 38.724 A 4.494,4.494 0 0 1 29,34.5 V 32 h 2 v 2.5 a 2.5,2.5 0 0 0 5,0 V 30 a 1,1 0 0 1 1,-1 h 4 a 1,1 0 0 1 1,1 v 2 a 2,2 0 0 0 4,0 v -4 a 1,1 0 0 1 0.993,-1 L 51,26.97 V 23 H 13 v 7 h 3 a 1,1 0 0 1 1,1 z m 13,-6 h 2 v 2 h -2 z m -9,3 h 2 v 2 h -2 z"
           id="path902" />
        <path
           style="fill:#d04100;fill-opacity:1"
           inkscape:connector-curvature="0"
           d="m 44,46 a 2,2 0 0 0 2,-2 c 0,-0.619 -0.938,-2.119 -2,-3.451 -1.061,1.325 -2,2.813 -2,3.451 a 2,2 0 0 0 2,2 z m -1,-3 h 2 v 2 h -2 z"
           id="path904" />
      </g>
      <rect
         rx="1.213316"
         ry="1.213316"
         y="146.70996"
         x="-24.084993"
         height="6.0665803"
         width="6.0665803"
         id="rect826-1"
         style="opacity:1;fill:none;fill-opacity:1;stroke:#d04100;stroke-width:1.21331608;stroke-linecap:square;stroke-linejoin:round;stroke-miterlimit:2;stroke-dasharray:none;stroke-dashoffset:0;stroke-opacity:1;paint-order:normal" />
      <rect
         rx="1.213316"
         ry="1.213316"
         y="146.70996"
         x="-40.904934"
         height="6.0665803"
         width="6.0665803"
         id="rect826-1-3"
         style="opacity:1;fill:none;fill-opacity:1;stroke:#d04100;stroke-width:1.21331596;stroke-linecap:square;stroke-linejoin:round;stroke-miterlimit:2;stroke-dasharray:none;stroke-dashoffset:0;stroke-opacity:1;paint-order:normal" />
      <rect
         rx="1.213316"
         ry="1.213316"
         y="146.70996"
         x="-15.675023"
         height="6.0665803"
         width="6.0665803"
         id="rect826-1-3-2"
         style="opacity:1;fill:#d04100;fill-opacity:1;stroke:#d04100;stroke-width:1.21331596;stroke-linecap:square;stroke-linejoin:round;stroke-miterlimit:2;stroke-dasharray:none;stroke-dashoffset:0;stroke-opacity:1;paint-order:normal" />
      <rect
         rx="1.213316"
         ry="1.213316"
         y="146.70996"
         x="-32.494965"
         height="6.0665803"
         width="6.0665803"
         id="rect826-1-3-2-0"
         style="opacity:1;fill:#d04100;fill-opacity:1;stroke:#d04100;stroke-width:1.21331596;stroke-linecap:square;stroke-linejoin:round;stroke-miterlimit:2;stroke-dasharray:none;stroke-dashoffset:0;stroke-opacity:1;paint-order:normal" />
    </g>
  </g>
</svg>
