<?xml version="1.0" encoding="UTF-8" standalone="no"?>
<!-- Generator: Adobe Illustrator 16.0.0, SVG Export Plug-In . SVG Version: 6.00 Build 0)  -->

<svg
   xmlns:dc="http://purl.org/dc/elements/1.1/"
   xmlns:cc="http://creativecommons.org/ns#"
   xmlns:rdf="http://www.w3.org/1999/02/22-rdf-syntax-ns#"
   xmlns:svg="http://www.w3.org/2000/svg"
   xmlns="http://www.w3.org/2000/svg"
   xmlns:sodipodi="http://sodipodi.sourceforge.net/DTD/sodipodi-0.dtd"
   xmlns:inkscape="http://www.inkscape.org/namespaces/inkscape"
   version="1.1"
   x="0px"
   y="0px"
   width="1700.79004px"
   height="1700.79004px"
   viewBox="499 379 690 690"
   enable-background="new 0 0 1700.79004 1700.79004"
   xml:space="preserve"
   id="svg14"
   sodipodi:docname="icon.svg"
   inkscape:version="0.92.3 (2405546, 2018-03-11)"><metadata
   id="metadata20"><rdf:RDF><cc:Work
       rdf:about=""><dc:format>image/svg+xml</dc:format><dc:type
         rdf:resource="http://purl.org/dc/dcmitype/StillImage" /></cc:Work></rdf:RDF></metadata><defs
   id="defs18" /><sodipodi:namedview
   pagecolor="#ffffff"
   bordercolor="#666666"
   borderopacity="1"
   objecttolerance="10"
   gridtolerance="10"
   guidetolerance="10"
   inkscape:pageopacity="0"
   inkscape:pageshadow="2"
   inkscape:window-width="1366"
   inkscape:window-height="705"
   id="namedview16"
   showgrid="false"
   inkscape:zoom="0.13875904"
   inkscape:cx="850.39502"
   inkscape:cy="850.39502"
   inkscape:window-x="-8"
   inkscape:window-y="-8"
   inkscape:window-maximized="1"
   inkscape:current-layer="svg14" />

<g
   id="logo">
</g>
<g
   id="g5874"
   transform="matrix(1.2979033,0,0,1.2979033,515.01529,391.38199)"><g
     id="g5781">
	<g
   id="g5779">
		<path
   id="path5777"
   d="m 482,122 c -15.778,0 -30,12.971 -30,30 v 96 c 0,11.999 -4.801,23.399 -13.2,31.8 -29.194,29.194 -47.534,47.532 -81.301,81.299 -5.099,5.7 -15.899,5.7 -21,0 -5.999,-5.999 -5.999,-15.298 0,-21.299 l 81,-81.301 c 8.992,-6.422 9.439,-29.914 -2.401,-39.6 C 401.3,205.101 380.9,208.4 371,220.699 c -0.601,0.601 -82.2,81.901 -82.8,82.8 -9,9 -16.199,24.3 -16.199,40.8 0,44.066 0,57.898 0,77.701 h 151.437 c 3.001,-17.827 11.217,-35.189 25.263,-49.501 9.602,-9.602 32.036,-32.038 41.398,-41.4 C 504.2,317 512,298.1 512,278.301 c 0,-42.261 0,-84.269 0,-126.301 0,-16.5 -13.5,-30 -30,-30 z"
   inkscape:connector-curvature="0"
   style="fill:#0f768c" />
	</g>
</g><g
     id="g5787">
	<g
   id="g5785">
		<path
   id="path5783"
   d="M 223.801,303.499 C 223.2,302.601 141.601,221.3 141,220.699 131.099,208.4 110.7,205.1 96.901,218.899 c -11.84,9.686 -11.393,33.179 -2.401,39.6 l 81,81.301 c 5.999,6 5.999,15.3 0,21.299 -5.101,5.7 -15.901,5.7 -21,0 C 120.734,327.333 102.394,308.995 73.199,279.8 64.801,271.399 60,259.999 60,248 V 152 C 60,134.971 45.778,122 30,122 13.5,122 0,135.5 0,152 0,194.032 0,236.04 0,278.301 0,298.1 7.8,317 21.901,331.099 c 9.362,9.362 31.796,31.798 41.398,41.4 14.047,14.312 22.263,31.674 25.264,49.501 H 240 c 0,-19.803 0,-33.635 0,-77.701 0,-16.5 -7.2,-31.8 -16.199,-40.8 z"
   inkscape:connector-curvature="0"
   style="fill:#0f768c" />
	</g>
</g><g
     id="g5793">
	<g
   id="g5791">
		<path
   id="path5789"
   d="m 90,452 c -16.569,0 -30,13.431 -30,30 v 15 c 0,8.284 6.716,15 15,15 h 165 v -60 z"
   inkscape:connector-curvature="0"
   style="fill:#0f768c" />
	</g>
</g><g
     id="g5799">
	<g
   id="g5797">
		<path
   id="path5795"
   d="M 422,452 H 272 v 60 h 165 c 8.284,0 15,-6.716 15,-15 v -15 c 0,-16.569 -13.431,-30 -30,-30 z"
   inkscape:connector-curvature="0"
   style="fill:#0f768c" />
	</g>
</g><g
     id="g5805">
	<g
   id="g5803">
		<path
   id="path5801"
   d="m 346,0 h -30 c -8.291,0 -15,6.709 -15,15 v 60 c 0,19.53 -12.578,36.024 -30,42.237 V 15 C 271,6.709 264.291,0 256,0 247.709,0 241,6.709 241,15 V 117.237 C 223.578,111.024 211,94.53 211,75 V 15 C 211,6.709 204.291,0 196,0 h -30 c -8.291,0 -15,6.709 -15,15 0,8.291 6.709,15 15,15 h 15 v 45 c 0,36.216 25.801,66.513 60,73.482 V 180 h -15 c -8.291,0 -15,6.709 -15,15 0,8.291 6.709,15 15,15 h 60 c 8.291,0 15,-6.709 15,-15 0,-8.291 -6.709,-15 -15,-15 H 271 V 148.482 C 305.199,141.513 331,111.216 331,75 V 30 h 15 c 8.291,0 15,-6.709 15,-15 0,-8.291 -6.709,-15 -15,-15 z"
   inkscape:connector-curvature="0"
   style="fill:#0f768c" />
	</g>
</g><g
     id="g5807">
</g><g
     id="g5809">
</g><g
     id="g5811">
</g><g
     id="g5813">
</g><g
     id="g5815">
</g><g
     id="g5817">
</g><g
     id="g5819">
</g><g
     id="g5821">
</g><g
     id="g5823">
</g><g
     id="g5825">
</g><g
     id="g5827">
</g><g
     id="g5829">
</g><g
     id="g5831">
</g><g
     id="g5833">
</g><g
     id="g5835">
</g></g></svg>