<?xml version="1.0" encoding="UTF-8" standalone="no"?>
<!-- Generator: Adobe Illustrator 16.0.0, SVG Export Plug-In . SVG Version: 6.00 Build 0)  -->

<svg
   xmlns:dc="http://purl.org/dc/elements/1.1/"
   xmlns:cc="http://creativecommons.org/ns#"
   xmlns:rdf="http://www.w3.org/1999/02/22-rdf-syntax-ns#"
   xmlns:svg="http://www.w3.org/2000/svg"
   xmlns="http://www.w3.org/2000/svg"
   xmlns:sodipodi="http://sodipodi.sourceforge.net/DTD/sodipodi-0.dtd"
   xmlns:inkscape="http://www.inkscape.org/namespaces/inkscape"
   version="1.1"
   x="0px"
   y="0px"
   width="1700.79004px"
   height="1700.79004px"
   viewBox="499 379 690 690"
   enable-background="new 0 0 1700.79004 1700.79004"
   xml:space="preserve"
   id="svg14"
   sodipodi:docname="icon.svg"
   inkscape:version="0.92.2 (5c3e80d, 2017-08-06)"><metadata
     id="metadata20"><rdf:RDF><cc:Work
         rdf:about=""><dc:format>image/svg+xml</dc:format><dc:type
           rdf:resource="http://purl.org/dc/dcmitype/StillImage" /></cc:Work></rdf:RDF></metadata><defs
     id="defs18" /><sodipodi:namedview
     pagecolor="#ffffff"
     bordercolor="#666666"
     borderopacity="1"
     objecttolerance="10"
     gridtolerance="10"
     guidetolerance="10"
     inkscape:pageopacity="0"
     inkscape:pageshadow="2"
     inkscape:window-width="1920"
     inkscape:window-height="1017"
     id="namedview16"
     showgrid="false"
     inkscape:zoom="0.27751809"
     inkscape:cx="1002.3565"
     inkscape:cy="1136.005"
     inkscape:window-x="-8"
     inkscape:window-y="-8"
     inkscape:window-maximized="1"
     inkscape:current-layer="svg14" /><g
     id="logo" /><path
     style="fill:#008080;stroke:#008080;stroke-width:20.28469086;stroke-miterlimit:4;stroke-dasharray:none;stroke-opacity:1"
     inkscape:connector-curvature="0"
     d="m 894.08954,771.2555 c 54.65079,0 99.11578,-44.47897 99.11578,-99.12977 0,-46.71761 -32.46028,-86.48146 -77.03719,-96.6113 -15.86636,-95.19816 -98.58411,-168.07988 -198.23156,-168.07988 -110.96658,0 -201.21175,90.25916 -201.21175,201.21175 0,110.95258 90.25916,201.22573 201.21175,201.22573 50.34141,0 96.30348,-18.72063 131.63202,-49.376 13.76763,6.93979 28.92043,10.75947 44.52095,10.75947 z m 71.13277,-99.12977 c 0,39.23216 -31.90061,71.14677 -71.13277,71.14677 -8.03113,0 -15.86637,-1.4831 -23.33782,-4.08552 30.08172,-35.18861 48.3826,-80.73095 48.3826,-130.54068 0,-0.9934 -0.13992,-1.95881 -0.1539,-2.93822 27.18547,10.17183 46.24189,36.16803 46.24189,66.41765 z M 544.70782,608.6463 c 0,-95.51997 77.70879,-173.22875 173.22875,-173.22875 95.51996,0 173.22875,77.70878 173.22875,173.22875 0,95.51996 -77.70879,173.24274 -173.22875,173.24274 -95.51996,0 -173.22875,-77.72278 -173.22875,-173.24274 z"
     id="path4672" /><path
     style="fill:#008080;stroke:#008080;stroke-width:8.11387631;stroke-opacity:1;stroke-miterlimit:4;stroke-dasharray:none"
     inkscape:connector-curvature="0"
     d="m 1083.9103,395.73503 c -41.2413,0 -74.8029,33.56157 -74.8029,74.8029 0,41.24134 33.5616,74.80291 74.8029,74.80291 41.2413,0 74.8028,-33.56157 74.8028,-74.80291 0,-41.24133 -33.5781,-74.8029 -74.8028,-74.8029 z m 0,116.36006 c -22.923,0 -41.5572,-18.65084 -41.5572,-41.55716 0,-22.90631 18.6342,-41.55717 41.5572,-41.55717 22.9229,0 41.5571,18.65086 41.5571,41.55717 0,22.90632 -18.6342,41.55716 -41.5571,41.55716 z"
     id="path4674" /><path
     style="fill:#008080;stroke:#008080;stroke-width:13.8613081;stroke-opacity:1"
     inkscape:connector-curvature="0"
     d="m 1010.8855,794.28569 c -70.97003,0 -128.71624,57.7462 -128.71624,128.7161 0,70.96979 57.74621,128.70211 128.71624,128.70211 70.9699,0 128.7162,-57.73232 128.7162,-128.70211 0,-70.9699 -57.7324,-128.7161 -128.7162,-128.7161 z m 0,229.69561 c -55.69487,0 -100.99362,-45.31249 -100.99362,-100.97951 0,-55.69474 45.31261,-100.99349 100.99362,-100.99349 55.6809,0 100.9935,45.31262 100.9935,100.99349 0,55.68087 -45.2848,100.97951 -100.9935,100.97951 z"
     id="path4676" /><path
     style="fill:#008080;stroke-width:4.05693815;stroke:#008080;stroke-opacity:1;stroke-miterlimit:4;stroke-dasharray:none"
     inkscape:connector-curvature="0"
     d="m 1080.9726,444.44029 c -16.17,3.22614 -21.0486,26.59599 -21.56,29.2451 -0.682,3.554 1.6655,6.98997 5.2195,7.6588 0.4066,0.0787 0.8131,0.11803 1.2328,0.11803 3.0818,0 5.8359,-2.1901 6.426,-5.33756 1.0229,-5.40312 5.272,-17.63885 11.2259,-18.83226 3.554,-0.70818 5.8491,-4.15726 5.154,-7.71126 -0.682,-3.56712 -4.2228,-5.84902 -7.6982,-5.14085 z"
     id="path4682" /><g
     id="g4688"
     transform="matrix(13.114392,0,0,13.114392,510.84602,395.44266)" /><g
     id="g4690"
     transform="matrix(13.114392,0,0,13.114392,510.84602,395.44266)" /><g
     id="g4692"
     transform="matrix(13.114392,0,0,13.114392,510.84602,395.44266)" /><g
     id="g4694"
     transform="matrix(13.114392,0,0,13.114392,510.84602,395.44266)" /><g
     id="g4696"
     transform="matrix(13.114392,0,0,13.114392,510.84602,395.44266)" /><g
     id="g4698"
     transform="matrix(13.114392,0,0,13.114392,510.84602,395.44266)" /><g
     id="g4700"
     transform="matrix(13.114392,0,0,13.114392,510.84602,395.44266)" /><g
     id="g4702"
     transform="matrix(13.114392,0,0,13.114392,510.84602,395.44266)" /><g
     id="g4704"
     transform="matrix(13.114392,0,0,13.114392,510.84602,395.44266)" /><g
     id="g4706"
     transform="matrix(13.114392,0,0,13.114392,510.84602,395.44266)" /><g
     id="g4708"
     transform="matrix(13.114392,0,0,13.114392,510.84602,395.44266)" /><g
     id="g4710"
     transform="matrix(13.114392,0,0,13.114392,510.84602,395.44266)" /><g
     id="g4712"
     transform="matrix(13.114392,0,0,13.114392,510.84602,395.44266)" /><g
     id="g4714"
     transform="matrix(13.114392,0,0,13.114392,510.84602,395.44266)" /><g
     id="g4716"
     transform="matrix(13.114392,0,0,13.114392,510.84602,395.44266)" /><path
     sodipodi:nodetypes="csssscscscccssssccsssssccccsccsssssssccssscc"
     inkscape:connector-curvature="0"
     id="path5230"
     d="m 987.976,1002.1171 c -46.6503,-11.46273 -74.7607,-64.58893 -56.8896,-107.517 8.9634,-21.53132 24.3235,-36.38302 44.8282,-43.34466 7.465,-2.53441 10.3351,-2.92873 21.0787,-2.89595 7.4343,0.0226 15.6999,0.75717 20.5483,1.82598 l 8.1112,1.78803 11.034,-5.69203 c 6.0687,-3.13062 11.3054,-5.4207 11.6369,-5.08905 0.3318,0.33162 -0.1689,4.33101 -1.1101,8.88752 l -1.7133,8.28459 5.0779,5.94391 5.0782,5.94395 7.1686,0.10773 c 3.9426,0.0592 8.3854,0.45333 9.8724,0.87563 2.6385,0.74929 2.5275,0.95104 -4.5964,8.36028 -6.1689,6.41622 -7.2999,8.17755 -7.2999,11.36884 0,2.07694 -0.8015,6.12886 -1.7815,9.00416 -8.8907,15.29841 -9.0893,13.69471 -16.195,17.50414 -7.4755,3.21506 -16.8183,2.44986 -27.9867,-2.29217 -23.452,-9.95756 -25.9173,-10.36456 -37.6311,-6.21167 -8.7565,3.10447 -13.5226,10.59734 -15.3182,24.08236 -0.5517,4.14368 -1.6023,5.87278 -6.5191,10.72858 -3.2239,3.1838 -5.612,6.1925 -5.3069,6.6861 0.3048,0.4935 3.8108,0.9006 7.7907,0.9046 l 7.2361,0.01 6.0854,6.2296 6.0854,6.2296 -0.8839,5.3891 c -0.486,2.964 -0.9129,6.7669 -0.9482,8.4508 l -0.064,3.0614 9.0887,-4.9543 c 4.9987,-2.7248 10.031,-4.9542 11.1827,-4.9542 1.1515,0 5.9433,1.0168 10.6482,2.2597 10.039,2.6518 25.7791,3.1134 35.5918,1.0438 8.6016,-1.8142 20.3246,-7.3306 27.1773,-12.7887 7.1246,-5.6747 15.939,-18.8633 18.8022,-28.13354 2.0773,-6.72531 3.9105,-20.6843 4.5759,-34.84087 l 0.2794,-5.94814 1.4039,4.32595 c 0.7722,2.37924 1.6867,8.94936 2.0324,14.60028 1.6201,26.47752 -6.9081,49.45122 -25.0911,67.59252 -12.2576,12.2294 -23.7183,18.5359 -42.3393,23.29823 -11.0285,2.8206 -28.9809,2.7665 -40.7396,-0.1234 z"
     style="opacity:1;fill:#008080;fill-opacity:1;stroke:none;stroke-width:0.50272185;stroke-linecap:round;stroke-linejoin:round;stroke-miterlimit:4;stroke-dasharray:none;stroke-opacity:1" /><path
     sodipodi:nodetypes="csssscscscccssssccsssssccccsccsssssssccssscc"
     inkscape:connector-curvature="0"
     id="path5230-0"
     d="m 571.88173,623.21378 c -12.66846,-82.40514 53.78392,-162.81622 134.48688,-162.73574 40.47789,0.04 74.50529,14.77862 99.30887,43.01396 9.02998,10.27953 11.57192,14.61771 18.66844,31.86067 4.91079,11.93175 9.23344,25.66962 10.74649,34.15251 l 2.53134,14.19155 16.46634,13.89913 c 9.05648,7.64452 16.21201,14.51474 15.90098,15.2668 -0.31077,0.75251 -7.05473,2.61125 -14.98482,4.13462 l -14.41974,2.76651 -6.14872,12.0948 -6.14858,12.09533 4.59752,11.5625 c 2.52865,6.35913 4.85327,13.74292 5.16585,16.4075 0.55467,4.72795 0.15742,4.68426 -16.45959,-1.80455 -14.38977,-5.61878 -17.96566,-6.25966 -23.0811,-4.13608 -3.3292,1.38206 -10.35752,2.79358 -15.61857,3.13603 -30.43851,-4.07117 -28.00005,-5.45668 -38.83467,-14.31176 -10.12797,-9.84333 -15.11839,-25.32843 -14.94904,-46.38615 0.3557,-44.21796 -0.63239,-48.44051 -15.08394,-64.45352 -10.80315,-11.97033 -25.98525,-14.62413 -48.79568,-8.52891 -7.00926,1.87303 -10.47997,1.33954 -21.53522,-3.31064 -7.24867,-3.04905 -13.66066,-4.87487 -14.24877,-4.05751 -0.58833,0.81705 1.09217,6.70784 3.7341,13.0901 l 4.80228,11.60426 -5.93625,13.89992 -5.93611,13.89981 -9.22661,2.16936 c -5.0746,1.1932 -11.45436,3.03951 -14.1771,4.10353 l -4.94977,1.93436 13.98919,11.27184 c 7.69413,6.19936 14.61636,12.78231 15.38273,14.6284 0.76625,1.84578 2.32496,10.20336 3.46334,18.57193 2.42957,17.85648 12.16364,43.394 22.01076,57.74598 8.63178,12.58058 25.27518,27.70097 38.58418,35.05343 13.83698,7.6442 40.84288,12.99698 57.6078,11.41778 12.16253,-1.14547 35.75776,-7.49572 58.89262,-15.84934 l 9.72041,-3.51023 -6.00002,5.12899 c -3.29993,2.82101 -13.22286,8.65886 -22.05089,12.9733 -41.36376,20.21591 -83.864,21.83315 -125.04283,4.75873 -27.75969,-11.51024 -45.49509,-25.6844 -65.51973,-52.36368 -11.85997,-15.80106 -23.71928,-44.61344 -26.91156,-65.38491 z"
     style="opacity:1;fill:#008080;fill-opacity:1;stroke:none;stroke-width:0.87250888;stroke-linecap:round;stroke-linejoin:round;stroke-miterlimit:4;stroke-dasharray:none;stroke-opacity:1" /></svg>